<?xml version="1.0" standalone="no"?>
<!DOCTYPE svg PUBLIC "-//W3C//DTD SVG 1.1//EN" "http://www.w3.org/Graphics/SVG/1.1/DTD/svg11.dtd" >
<svg xmlns="http://www.w3.org/2000/svg">
<defs>
  <font id="gaiasky-icons" horiz-adv-x="1000">
    <font-face font-family="gaiasky-icons"
      units-per-em="1000" ascent="1000"
      descent="0" />
    <missing-glyph horiz-adv-x="0" />
    <glyph glyph-name="bi-windows"
      unicode="&#xEA01;"
      horiz-adv-x="1000" d="M409.6875 914.0625L0 860.1875V519.5625H409.6875zM0 137.8125L409.6875 79.5V480.4375H0zM454.875 475.3125L456.4999999999999 76.6875L1000 0V475.3125zM1000 1000L458.125 922.25V521.375H1000z" />
    <glyph glyph-name="bx-globe"
      unicode="&#xEA02;"
      horiz-adv-x="1000" d="M500 916.6666666666666C270.25 916.6666666666666 83.3333333333333 729.75 83.3333333333333 500S270.25 83.3333333333334 499.9999999999999 83.3333333333334S916.6666666666666 270.25 916.6666666666666 500S729.7499999999999 916.6666666666666 500 916.6666666666666M830.4583333333333 541.6666666666667H715.2916666666666A612.4999999999999 612.4999999999999 0 0 1 640.625 801.7916666666667A333.75 333.75 0 0 0 830.4583333333333 541.6666666666667M522.0833333333333 832.2083333333333C565.2083333333333 775.375 623.2083333333333 674.7083333333334 631.5416666666665 541.6666666666667H376.25C382.0416666666667 649.8333333333334 417.6666666666667 751.1666666666666 478.375 832.25C485.5416666666666 832.6666666666666 492.7083333333333 833.3333333333333 500 833.3333333333333C507.4583333333334 833.3333333333333 514.75 832.6666666666666 522.0833333333334 832.2083333333333M362 803.0416666666666C321 724.25 297.3333333333333 634.9166666666667 292.9166666666667 541.6666666666667H169.5416666666667A333.75 333.75 0 0 0 362 803.0416666666666M169.5416666666667 458.3333333333334H293.4583333333333C299.125 359.2083333333334 321.1666666666667 271.75 358.2916666666667 198.75A333.75 333.75 0 0 0 169.5416666666667 458.3333333333334M477.0833333333333 167.7916666666668C418.7083333333333 238.5416666666668 384.25 337.6666666666667 376.7083333333333 458.3333333333334H631.4166666666666C622.7499999999999 342.7916666666668 584.8749999999999 241.8333333333334 522.9583333333333 167.8333333333334C515.3749999999999 167.3333333333335 507.7916666666666 166.6666666666668 499.9999999999999 166.6666666666668C492.2499999999999 166.6666666666668 484.7083333333333 167.3333333333335 477.0833333333333 167.7916666666668M644.2083333333333 199.9583333333335C683.9999999999999 274.7083333333335 708.2916666666665 362.5 714.6666666666665 458.3333333333335H830.4166666666666A333.3333333333333 333.3333333333333 0 0 0 644.2083333333333 199.9583333333335" />
    <glyph glyph-name="bxs-chip"
      unicode="&#xEA03;"
      horiz-adv-x="1000" d="M791.6666666666666 708.3333333333334A83.3333333333333 83.3333333333333 0 0 1 708.3333333333333 791.6666666666667H666.6666666666666V916.6666666666666H583.3333333333333V791.6666666666667H416.6666666666667V916.6666666666666H333.3333333333333V791.6666666666667H291.6666666666667A83.3333333333333 83.3333333333333 0 0 1 208.3333333333333 708.3333333333334V666.6666666666667H83.3333333333333V583.3333333333334H208.3333333333333V416.6666666666668H83.3333333333333V333.3333333333334H208.3333333333333V291.6666666666668A83.3333333333333 83.3333333333333 0 0 1 291.6666666666667 208.3333333333334H333.3333333333333V83.3333333333334H416.6666666666667V208.3333333333334H583.3333333333333V83.3333333333334H666.6666666666666V208.3333333333334H708.3333333333333A83.3333333333333 83.3333333333333 0 0 1 791.6666666666666 291.6666666666668V333.3333333333334H916.6666666666666V416.6666666666668H791.6666666666666V583.3333333333334H916.6666666666666V666.6666666666667H791.6666666666666zM625 375H375V625H625z" />
    <glyph glyph-name="carbon-edge-cluster"
      unicode="&#xEA04;"
      horiz-adv-x="1000" d="M500 781.25A93.75 93.75 0 1 0 593.75 875A93.84375 93.84375 0 0 0 500 781.25M500 906.25A31.25 31.25 0 1 1 531.25 875A31.25 31.25 0 0 1 500 906.25M343.75 62.5A93.75 93.75 0 1 0 437.5 156.25A93.84375 93.84375 0 0 0 343.75 62.5M343.75 187.5A31.25 31.25 0 1 1 375 156.25A31.25 31.25 0 0 1 343.75 187.5M218.75 656.25A93.75 93.75 0 1 0 312.5 750A93.84375 93.84375 0 0 0 218.75 656.25M218.75 781.25A31.25 31.25 0 1 1 250 750A31.25 31.25 0 0 1 218.75 781.25M656.25 62.5A93.75 93.75 0 1 0 750 156.25A93.84375 93.84375 0 0 0 656.25 62.5M656.25 187.5A31.25 31.25 0 1 1 687.5 156.25A31.25 31.25 0 0 1 656.25 187.5M781.25 656.25A93.75 93.75 0 1 0 875 750A93.84375 93.84375 0 0 0 781.25 656.25M781.25 781.25A31.25 31.25 0 1 1 812.5 750A31.25 31.25 0 0 1 781.25 781.25M125 343.75A93.75 93.75 0 1 0 218.75 437.5A93.84375 93.84375 0 0 0 125 343.75M125 468.75A31.25 31.25 0 1 1 156.25 437.5A31.25 31.25 0 0 1 125 468.75M875 343.75A93.75 93.75 0 1 0 968.75 437.5A93.84375 93.84375 0 0 0 875 343.75M875 468.75A31.25 31.25 0 1 1 906.25 437.5A31.25 31.25 0 0 1 875 468.75M500 312.5A187.5 187.5 0 1 0 687.5 500A187.71875 187.71875 0 0 0 500 312.5M500 625A125 125 0 1 1 625 500A125.15625 125.15625 0 0 1 500 625" />
    <glyph glyph-name="cib-mozilla"
      unicode="&#xEA05;"
      horiz-adv-x="1000" d="M0 0V1000H1000V0zM682.96875 718.25L673.34375 717.125L664.21875 715.5L655.4375 712.875L647.15625 709.96875L638.6875 707.0625L630.90625 703.3125L623.40625 699.21875L616.2500000000001 694.6875L609.2500000000001 689.65625L602.59375 684.28125L596.2500000000001 678.40625L590.5312500000001 672.0625L585.0000000000001 665.4062500000001L579.625 658.40625L575.0937500000001 651.2500000000001L570.5000000000001 643.4062500000001L566.2812500000001 635.4375000000001L562.53125 626.65625L559.2812500000001 635.9375000000001L555.0312500000001 644.5625000000001L550.8125 653.0312500000001L545.9375000000001 660.8125000000001L540.4062500000001 667.9687500000001L534.5312500000001 674.6250000000001L528.3750000000001 680.84375L522.1562500000001 686.6875L515.0000000000001 692.0625L508.0000000000001 696.6562500000001L500.0312500000002 701.1875L492.5312500000002 705.09375L484.2500000000001 708.34375L475.9687500000001 711.25L467.5000000000001 713.71875L458.8750000000001 715.84375L449.5937500000001 717.46875L440.4687500000001 718.25L431.3750000000001 719.25H413.4687500000001L404.6875000000001 718.25L396.40625 717.46875L387.9375 716.3125L380.09375 714.21875L372.59375 712.09375L365.125 709.625L357.46875 706.71875L350.96875 703.3125L343.8125 700.0625L337.6562500000001 695.8125L331.28125 691.78125L325.4375000000001 687.0312500000001L319.7187500000001 682.15625L314.1875000000001 676.6250000000001L309.3125000000001 671.25L304.2812500000001 665.4062500000001L299.6875000000001 659.1875000000001L295.4687500000001 652.5312500000001L291.7187500000001 645.8750000000002V710.5H110.375V617.875H167.53125V373.75H110.375V279.65625H374.21875V373.75H291.71875V532.59375L292.21875 541.21875L293.34375 549.6875L294.625 557.53125L296.25 565.03125L298.375 572.5L300.84375 579.15625L303.75 585.875L307.15625 591.71875L310.90625 597.59375L315.4375 602.625L320.03125 607.15625L325.0625 611.40625L330.9062499999999 615.15625L337.1249999999999 618.40625L343.2812499999999 620.8125L350.4374999999999 622.9375L358.4374999999999 624.5624999999999L366.2187499999999 625.5624999999999L374.9999999999999 625.9062499999999H382.1562499999999L388.6562499999999 625.0624999999999L395.3124999999999 623.7812499999999L401.1874999999999 622.1562499999999L407.0624999999999 620.03125L412.4062499999999 617.5624999999999L417.4999999999999 614.6562499999999L422.0312499999999 610.90625L426.2499999999999 606.6875L430.3437499999999 602.09375L433.7499999999999 597.0625L436.9999999999999 591.34375L439.6249999999999 584.6875L442.0312499999999 578.03125L444.1562499999999 570.0625L445.7812499999998 562.0625L447.0624999999999 553.4375L448.4062499999998 543.84375L448.7499999999998 533.4375V279.6875H627.9062499999998V373.78125H570.7812499999998V523.8125L571.2812499999998 532.59375L571.6249999999998 541.21875L572.4062499999997 549.6875L574.1874999999997 557.53125L575.8124999999997 565.03125L577.9374999999997 572.5L580.4062499999997 579.15625L583.3124999999997 585.875L586.5624999999997 591.71875L590.4687499999997 597.59375L594.5624999999997 602.625L599.5937499999997 607.15625L604.6249999999998 611.40625L610.2812499999998 615.1562499999999L616.1562499999998 618.4062499999999L622.8124999999998 620.8124999999999L629.9687499999998 622.9374999999999L637.8124999999998 624.5624999999998L645.7812499999998 625.5624999999998L654.5624999999997 625.9062499999998H661.5624999999998L668.2187499999998 625.0624999999998L674.8749999999998 623.7812499999998L680.7499999999998 622.1562499999998L686.5937499999998 620.0312499999999L691.9687499999998 617.5624999999998L696.9999999999999 614.6562499999998L701.5937499999998 610.9062499999999L705.8124999999999 606.6874999999999L709.5624999999999 602.0937499999999L713.3124999999999 597.0624999999999L716.5624999999999 591.3437499999999L719.1874999999999 584.6875L721.5937499999999 578.03125L723.71875 570.0625L725.34375 562.0624999999999L726.625 553.4375L727.7812499999999 543.8437499999999L728.25 533.4374999999999V279.6874999999999H907.4687499999998V373.7812499999999H850.34375V570.5312499999998L849.84375 585.5312499999998L848.21875 599.1874999999998L845.8125 612.5312499999998L842.4062499999999 625.0624999999998L838.3124999999999 636.7812499999998L833.2812499999999 647.5312499999998L827.4062499999999 657.6249999999998L820.7499999999999 667.2499999999998L813.2812499999999 675.5312499999998L805.7812499999999 683.3124999999998L796.9999999999999 690.0312499999998L788.3749999999999 696.3749999999998L778.7499999999999 701.7499999999998L768.6562499999999 706.7812499999998L758.25 710.5312499999998L747.84375 713.7812499999998L736.6250000000001 716.3749999999998L725.875 717.9999999999998L714.15625 719.3437499999998H692.5z" />
    <glyph glyph-name="clarity-data-cluster-line"
      unicode="&#xEA06;"
      horiz-adv-x="1000" d="M736.1111111111111 886.6666666666666C632.5 886.6666666666666 527.7777777777777 850 527.7777777777777 780.2777777777778V736.1111111111111A527.7777777777778 527.7777777777778 0 0 0 583.3333333333333 730.5555555555555V780.2777777777778C583.3333333333333 798.3333333333334 641.3888888888888 831.3888888888889 736.1111111111111 831.3888888888889S888.8888888888888 798.0555555555555 888.8888888888888 780.2777777777778V493.3333333333334C888.8888888888888 478.3333333333334 848.3333333333333 453.3333333333334 780.5555555555555 445.2777777777779V389.7222222222223C867.4999999999999 398.6111111111111 944.4444444444443 434.1666666666668 944.4444444444443 493.8888888888889V780.2777777777778C944.4444444444443 850 839.7222222222223 886.6666666666666 736.1111111111112 886.6666666666666M111.1111111111111 493.3333333333334V780.2777777777778C111.1111111111111 798.3333333333334 169.1666666666667 831.3888888888889 263.8888888888889 831.3888888888889S416.6666666666667 798.0555555555555 416.6666666666667 780.2777777777778V730.5555555555555A527.7777777777778 527.7777777777778 0 0 0 472.2222222222222 736.1111111111111V780.2777777777778C472.2222222222222 850.2777777777778 367.5 886.9444444444445 263.8888888888889 886.9444444444445S55.5555555555556 850 55.5555555555556 780.2777777777778V493.3333333333334C55.5555555555556 433.3333333333335 132.5 398.0555555555556 219.4444444444444 388.8888888888889V444.4444444444446C151.6666666666667 453.3333333333334 111.1111111111111 478.3333333333333 111.1111111111111 493.3333333333334M500 698.6111111111111C363.0555555555556 698.6111111111111 259.7222222222222 646.3888888888889 259.7222222222222 576.9444444444445V235.0000000000001C259.7222222222222 165.5555555555557 363.0555555555556 113.3333333333334 500 113.3333333333334S740.2777777777778 165.5555555555556 740.2777777777778 235.0000000000001V576.9444444444445C740.2777777777778 646.3888888888889 636.9444444444446 698.6111111111111 500 698.6111111111111M684.7222222222223 485.5555555555555C661.1111111111111 457.7777777777777 589.7222222222223 429.9999999999999 500 429.9999999999999A402.7777777777779 402.7777777777779 0 0 0 388.8888888888889 444.4444444444445V403.8888888888888A452.7777777777777 452.7777777777777 0 0 1 500 390.8333333333333A354.4444444444444 354.4444444444444 0 0 1 684.7222222222223 434.1666666666667V347.4999999999999C661.1111111111111 319.7222222222222 589.7222222222223 291.9444444444444 500 291.9444444444444A402.7777777777779 402.7777777777779 0 0 0 388.8888888888889 306.6666666666665V266.111111111111A452.7777777777777 452.7777777777777 0 0 1 500 253.0555555555553A354.4444444444444 354.4444444444444 0 0 1 684.7222222222223 296.3888888888887V232.7777777777776C684.7222222222222 206.3888888888889 611.1111111111111 166.6666666666668 500 166.6666666666668S315.2777777777778 206.3888888888889 315.2777777777778 232.7777777777779V576.9444444444445C315.2777777777778 603.3333333333334 388.8888888888889 643.0555555555557 500 643.0555555555557S684.7222222222223 603.3333333333334 684.7222222222223 576.9444444444445z" />
    <glyph glyph-name="clarity-file-zip-solid"
      unicode="&#xEA07;"
      horiz-adv-x="1000" d="M416.6666666666667 288.8888888888889C441.6666666666667 288.8888888888889 461.1111111111111 308.3333333333334 461.1111111111111 333.3333333333333V405.5555555555555H372.2222222222222V333.3333333333334C372.2222222222222 308.3333333333334 391.6666666666667 288.8888888888891 416.6666666666667 288.8888888888891M608.3333333333333 888.8888888888889H216.6666666666667C188.8888888888889 888.8888888888889 166.6666666666667 863.8888888888889 166.6666666666667 836.1111111111111V163.888888888889C166.6666666666667 136.1111111111112 188.8888888888889 111.1111111111112 216.6666666666667 111.1111111111112H780.5555555555555C808.3333333333334 111.1111111111112 830.5555555555557 136.1111111111112 830.5555555555557 163.888888888889V669.4444444444445zM500 333.3333333333334C500 286.1111111111112 463.8888888888889 250 416.6666666666667 250S333.3333333333334 286.1111111111111 333.3333333333334 333.3333333333334V444.4444444444445H500zM477.7777777777778 666.6666666666667C494.4444444444445 666.6666666666667 505.5555555555555 655.5555555555555 505.5555555555555 638.8888888888889S494.4444444444444 611.1111111111111 477.7777777777778 611.1111111111111H416.6666666666667V555.5555555555557H477.7777777777778C494.4444444444444 555.5555555555557 505.5555555555555 544.4444444444445 505.5555555555555 527.7777777777778S494.4444444444444 500 477.7777777777778 500H416.6666666666667V555.5555555555557H355.5555555555555C338.8888888888889 555.5555555555557 327.7777777777777 566.6666666666667 327.7777777777777 583.3333333333334S338.8888888888889 611.1111111111111 355.5555555555555 611.1111111111111H416.6666666666667V666.6666666666667H355.5555555555555C338.8888888888889 666.6666666666667 327.7777777777777 677.7777777777778 327.7777777777777 694.4444444444446S338.8888888888889 722.2222222222224 355.5555555555555 722.2222222222224H416.6666666666667V777.7777777777778H477.7777777777778C494.4444444444444 777.7777777777778 505.5555555555555 766.6666666666667 505.5555555555555 750S494.4444444444444 722.2222222222222 477.7777777777778 722.2222222222222H416.6666666666667V666.6666666666666zM608.3333333333334 666.6666666666667V819.4444444444445L766.6666666666667 666.6666666666667z" />
    <glyph glyph-name="clarity-language-line"
      unicode="&#xEA08;"
      horiz-adv-x="1000" d="M833.3333333333333 916.6666666666666H388.8888888888889V777.7777777777778H444.4444444444444V861.1111111111111H833.3333333333333C850 861.1111111111111 861.1111111111111 850 861.1111111111111 833.3333333333333V527.7777777777778C861.1111111111111 511.1111111111111 850 500 833.3333333333333 500H472.2222222222222V305.5555555555556H325L222.2222222222222 225.0000000000001V305.5555555555556H138.8888888888889C122.2222222222222 305.5555555555556 111.1111111111111 316.6666666666667 111.1111111111111 333.3333333333334V638.8888888888889C111.1111111111111 655.5555555555555 122.2222222222222 666.6666666666667 138.8888888888889 666.6666666666667H500V722.2222222222222H138.8888888888889C91.6666666666667 722.2222222222222 55.5555555555556 686.1111111111111 55.5555555555556 638.8888888888889V333.3333333333334C55.5555555555556 286.1111111111112 91.6666666666667 250 138.8888888888889 250H166.6666666666667V108.3333333333334L341.6666666666667 250H527.7777777777778V444.4444444444445H833.3333333333333C880.5555555555555 444.4444444444445 916.6666666666666 480.5555555555555 916.6666666666666 527.7777777777777V833.3333333333334C916.6666666666666 880.5555555555555 880.5555555555555 916.6666666666666 833.3333333333333 916.6666666666666M172.2222222222222 363.8888888888889H238.8888888888889L255.5555555555556 408.3333333333334H341.6666666666667L358.3333333333333 363.8888888888889H425L330.5555555555556 611.1111111111111H263.8888888888889zM297.2222222222223 541.6666666666667L325 455.5555555555557H269.4444444444445zM555.5555555555555 527.7777777777778C586.1111111111111 527.7777777777778 627.7777777777777 536.1111111111111 666.6666666666667 555.5555555555557C705.5555555555557 536.1111111111111 750.0000000000001 527.7777777777778 777.7777777777779 527.7777777777778V583.3333333333334S750.0000000000001 583.3333333333334 719.4444444444446 594.4444444444446C752.7777777777778 627.7777777777778 777.7777777777779 677.7777777777778 777.7777777777779 750V777.7777777777778H694.4444444444446V833.3333333333334H638.8888888888889V777.7777777777778H555.5555555555555V722.2222222222222H719.4444444444445C713.8888888888889 672.2222222222222 691.6666666666666 641.6666666666667 666.6666666666666 622.2222222222222C649.9999999999999 636.1111111111111 633.3333333333333 655.5555555555555 622.2222222222223 680.5555555555557H563.8888888888889C575 644.4444444444446 591.6666666666666 616.6666666666667 613.8888888888889 594.4444444444445C586.1111111111111 583.3333333333333 561.1111111111111 583.3333333333333 555.5555555555555 583.3333333333333z" />
    <glyph glyph-name="clarity-language-solid"
      unicode="&#xEA09;"
      horiz-adv-x="1000" d="M305.5555555555556 541.6666666666667L277.7777777777777 455.5555555555557H333.3333333333333zM841.6666666666666 916.6666666666666H397.2222222222223V777.7777777777778H508.3333333333333V722.2222222222222H147.2222222222222C100 722.2222222222222 63.8888888888889 686.1111111111111 63.8888888888889 638.8888888888889V333.3333333333334C63.8888888888889 286.1111111111112 100 250 147.2222222222222 250H175V108.3333333333334L350 250H536.1111111111111V444.4444444444445H841.6666666666665C888.8888888888888 444.4444444444445 924.9999999999998 480.5555555555555 924.9999999999998 527.7777777777777V833.3333333333334C924.9999999999998 880.5555555555555 888.8888888888888 916.6666666666666 841.6666666666665 916.6666666666666M363.8888888888889 363.8888888888889L350 408.3333333333334H263.8888888888889L247.2222222222223 363.8888888888889H180.5555555555556L272.2222222222223 611.1111111111111H338.8888888888889L430.5555555555556 363.8888888888889zM786.1111111111111 583.3333333333334V527.7777777777778C750 527.7777777777778 711.1111111111111 538.8888888888889 677.7777777777778 555.5555555555557C644.4444444444445 538.8888888888889 605.5555555555557 530.5555555555555 566.6666666666666 527.7777777777778L563.8888888888889 583.3333333333334Q593.0555555555555 583.3333333333334 622.2222222222223 591.6666666666667C597.2222222222222 616.6666666666667 580.5555555555557 647.2222222222222 572.2222222222222 680.5555555555557H630.5555555555555C638.8888888888888 655.5555555555557 655.5555555555555 636.1111111111112 674.9999999999999 619.4444444444446C705.5555555555555 644.4444444444446 725 680.5555555555557 727.7777777777777 722.2222222222224H561.1111111111111V777.7777777777778H644.4444444444445V833.3333333333334H700.0000000000001V777.7777777777778H791.6666666666667L794.4444444444445 750C797.2222222222223 691.6666666666666 775 633.3333333333333 733.3333333333334 591.6666666666667C752.7777777777778 586.1111111111111 769.4444444444445 583.3333333333333 786.1111111111112 583.3333333333333" />
    <glyph glyph-name="clarity-objects-solid"
      unicode="&#xEA0A;"
      horiz-adv-x="1000" d="M295.8333333333333 321.1111111111111A264.1666666666667 264.1666666666667 0 0 0 491.9444444444444 575.8333333333333L361.1111111111111 916.6666666666666A27.7777777777778 27.7777777777778 0 0 1 309.1666666666667 916.6666666666666L57.5 262.2222222222223A27.7777777777778 27.7777777777778 0 0 1 83.3333333333333 224.4444444444445H314.4444444444444A261.1111111111112 261.1111111111112 0 0 0 295.8333333333333 321.1111111111111M888.8888888888888 722.2222222222222H555.5555555555555A27.7777777777778 27.7777777777778 0 0 1 527.7777777777778 694.4444444444443V583.3333333333333A261.9444444444445 261.9444444444445 0 0 0 823.0555555555557 333.3333333333333H888.8888888888888A27.7777777777778 27.7777777777778 0 0 1 916.6666666666666 361.1111111111111V694.4444444444445A27.7777777777778 27.7777777777778 0 0 1 888.8888888888888 722.2222222222223M351.3888888888888 321.1111111111111A208.3333333333333 208.3333333333333 0 0 1 768.0555555555555 321.1111111111111A208.3333333333333 208.3333333333333 0 0 1 351.3888888888888 321.1111111111111" />
    <glyph glyph-name="codeberg"
      unicode="&#xEA0B;"
      horiz-adv-x="1000" d="M498.125 979.5833333333334A500 500 0 0 1 0 479.5833333333334A500 500 0 0 1 76.3333333333333 214.0416666666668L493.2499999999999 753A7.7916666666667 5.8333333333333 0 0 0 506.7499999999999 753L923.6666666666666 214.0416666666668A500 500 0 0 1 1000 479.5833333333334A500 500 0 0 1 500 979.5833333333334A500 500 0 0 1 498.125 979.5833333333334zM513.7499999999999 710.125L697.7499999999999 20.4166666666666A500 500 0 0 1 911.7916666666666 195.9583333333333z" />
    <glyph glyph-name="f7-arrow-2-circlepath-circle-fill"
      unicode="&#xEA0C;"
      horiz-adv-x="1000" d="M500 73.1071428571429C733.125 73.1071428571429 926.8928571428572 266.8750000000001 926.8928571428572 500C926.8928571428572 733.5357142857142 732.6964285714286 926.8928571428572 499.5714285714286 926.8928571428572C266.0535714285714 926.8928571428572 73.125 733.5357142857142 73.125 500C73.125 266.875 266.4821428571429 73.1071428571429 500.0178571428571 73.1071428571429M348.5178571428571 634.3571428571429C333.875 649.8392857142857 338.4642857142857 671.5892857142857 358.5535714285714 687.0892857142857C394.9821428571428 717.2142857142857 447.2857142857142 735.625 499.6071428571428 735.625C623.4821428571428 735.625 720.5714285714286 648.5714285714286 735.642857142857 525.1071428571429H764.1071428571428C780.8571428571428 525.1071428571429 785.4464285714284 508.7857142857143 774.9999999999999 496.2321428571429L718.0714285714284 424.25C707.1785714285713 410.4285714285715 692.1249999999999 411.6964285714287 681.642857142857 424.25L623.892857142857 496.2321428571429C613.8571428571428 508.375 618.4642857142856 525.1071428571429 635.1964285714284 525.1071428571429H673.7142857142856C661.142857142857 606.3035714285714 587.9107142857142 669.5 499.6071428571428 669.5C458.9999999999999 669.5 428.8571428571428 656.9464285714286 398.7321428571428 633.5178571428571C381.9999999999999 620.9464285714286 362.7321428571428 618.4464285714286 348.5178571428571 634.3392857142858M222.1071428571428 506.2678571428572L279.0357142857142 578.2321428571429C289.9285714285714 592.0535714285714 304.9821428571429 590.8035714285714 315.4464285714285 578.2321428571429L373.625 506.2678571428572C383.6607142857142 494.1250000000001 378.6428571428571 476.9642857142858 362.3214285714285 476.9642857142858H326.3214285714286C338.8928571428571 396.1964285714286 411.7142857142857 332.5714285714287 500.4285714285714 332.5714285714287C541.0357142857143 332.5714285714287 571.1607142857142 345.5535714285715 601.3035714285714 369.0000000000001C617.6250000000001 381.1250000000001 636.8750000000001 384.0535714285716 651.5178571428572 368.1428571428572C665.7500000000001 352.6607142857144 661.1607142857144 330.8928571428572 641.482142857143 315.0000000000001C605.0535714285716 284.8571428571429 552.3392857142859 266.8571428571429 500.4285714285716 266.8571428571429C376.1428571428573 266.8571428571429 279.0357142857145 353.9107142857144 263.9642857142859 476.9642857142858H233.0000000000002C216.2500000000002 476.9642857142858 212.0714285714287 493.6964285714286 222.107142857143 506.2500000000001" />
    <glyph glyph-name="fa6-brands-apple"
      unicode="&#xEA0D;"
      horiz-adv-x="750" d="M622.4609375 475.1953125C622.0703125 546.875 654.4921874999999 600.9765625 720.1171875 640.8203125C683.3984375 693.359375 627.9296875 722.265625 554.6875 727.9296875C485.3515625 733.3984375 409.5703125 687.5 381.8359375 687.5C352.5390625 687.5 285.3515625 725.9765625 232.6171875 725.9765625C123.6328125 724.21875 7.8125 639.0625 7.8125 465.8203125Q7.8125 389.0625 35.9375 307.2265625C60.9375 235.546875 151.171875 59.765625 245.3125 62.6953125C294.53125 63.8671875000001 329.296875 97.65625 393.359375 97.65625C455.46875 97.65625 487.6953125 62.6953125 542.5781249999999 62.6953125C637.5 64.0625 719.1406249999999 223.828125 742.96875 295.7031250000001C615.625 355.6640625 622.4609375 471.4843750000001 622.4609375 475.1953125000001M511.9140624999999 795.8984375000001C565.234375 859.1796875000001 560.3515625 916.7968750000002 558.7890624999999 937.5000000000002C511.7187499999999 934.7656250000002 457.2265624999999 905.4687500000002 426.171875 869.3359375000001C391.9921875 830.6640625000001 371.8749999999999 782.8125000000001 376.171875 728.9062500000001C427.1484375 725.0000000000001 473.6328124999999 751.1718750000001 511.9140624999999 795.8984375000001" />
    <glyph glyph-name="fa6-brands-creative-commons-by"
      unicode="&#xEA0E;"
      horiz-adv-x="970" d="M615.8326612903226 620.3125V422.265625H560.4879032258065V186.9140625H409.7076612903226V422.0703125H354.3629032258065V620.3125C354.3629032258065 628.90625 357.491935483871 636.328125 363.358870967742 642.3828125C369.421370967742 648.4375 376.8528225806453 651.5625 385.4576612903227 651.5625H584.7379032258065C592.7560483870967 651.5625 599.991935483871 648.4375 606.4455645161289 642.3828125C612.5080645161289 636.1328125 615.8326612903226 628.90625 615.8326612903226 620.3125M417.3346774193548 744.7265625C417.3346774193548 790.234375 439.8245967741935 813.0859375 484.8044354838709 813.0859375S552.2741935483871 790.234375 552.2741935483871 744.7265625Q552.2741935483871 677.34375 484.8044354838709 677.34375C417.3346774193548 677.34375 417.3346774193548 699.8046875 417.3346774193548 744.7265625M484.2177419354838 984.375C761.5282258064515 984.375 970 769.3359375 970 500C970 212.6953125 738.2560483870968 15.625 484.2177419354838 15.625C222.1612903225806 15.625 0 229.4921875 0 500C0 759.5703125 204.7560483870968 984.375 484.2177419354838 984.375M485.7822580645161 897.0703125C254.625 897.0703125 87.4173387096774 705.859375 87.4173387096774 500C87.4173387096774 285.546875 265.7721774193548 103.90625 485.7822580645161 103.90625C687.6048387096773 103.90625 882.3870967741935 262.3046874999999 882.3870967741935 500C882.5826612903226 722.265625 705.9879032258065 897.0703125 485.7822580645162 897.0703125" />
    <glyph glyph-name="fa6-brands-creative-commons-nc"
      unicode="&#xEA0F;"
      horiz-adv-x="970" d="M484.2177419354838 984.375C757.6169354838709 984.375 970 773.6328125 970 500C970 212.5 738.2560483870968 15.625 484.2177419354838 15.625C221.1834677419355 15.625 0 232.03125 0 500C0 759.5703125 204.7560483870968 984.375 484.2177419354838 984.375M109.125 630.6640625Q87.4173387096774 570.8984375 87.4173387096774 500C87.4173387096774 283.3984375 267.5322580645162 104.6875 485.7822580645161 104.6875C725.1532258064516 104.6875 832.3225806451612 303.5156250000001 834.8649193548387 308.0078125000001L652.2076612903224 389.2578125000001C637.149193548387 316.7968750000001 571.6350806451612 285.7421875000001 518.8326612903224 281.0546875000003V206.6406250000001H462.5100806451612V281.25Q381.8397177419354 282.12890625 315.25 339.2578125L381.9375 406.640625C443.9314516129032 349.21875 550.9052419354839 344.53125 550.9052419354839 410.9375C550.9052419354839 423.0468749999999 546.6028225806452 432.8124999999999 537.9979838709678 440.4296875C510.2278225806451 452.1484375 534.4778225806451 440.625 109.125 630.6640625M485.7822580645162 897.8515625C410.6854838709678 897.8515625 265.9677419354839 880.859375 152.3447580645161 716.2109375L337.7399193548387 633.203125C357.2963709677419 694.3359375 416.7479838709678 716.9921875 462.5100806451613 719.7265625V794.140625H518.8326612903226V719.7265625C563.2258064516129 717.3828125 603.7076612903226 702.34375 640.0826612903226 674.8046875L576.9153225806451 609.9609375C493.4092741935484 668.359375 413.6189516129032 625.5859375 440.0201612903226 588.28125C544.4516129032259 541.2109375 525.6774193548387 549.609375 621.8951612903227 507.0312500000001L870.4576612903226 396.2890625000001C878.4758064516128 430.2734375 882.5826612903226 464.8437500000001 882.5826612903226 500.0000000000001C882.5826612903226 611.328125 843.8608870967741 705.078125 766.6129032258065 781.0546875C689.7560483870968 858.9843750000001 596.0806451612904 897.8515625 485.7822580645162 897.8515625" />
    <glyph glyph-name="fa6-brands-creative-commons-nd"
      unicode="&#xEA10;"
      horiz-adv-x="970" d="M484.2177419354838 984.375C761.5282258064515 984.375 970 769.3359375 970 500C970 212.6953125 738.2560483870968 15.625 484.2177419354838 15.625C222.1612903225806 15.625 0 229.4921875 0 500C0 759.5703125 204.7560483870968 984.375 484.2177419354838 984.375M485.7822580645161 897.0703125C254.625 897.0703125 87.4173387096774 705.859375 87.4173387096774 500C87.4173387096774 285.546875 265.7721774193548 103.90625 485.7822580645161 103.90625C687.6048387096773 103.90625 882.3870967741935 262.3046874999999 882.3870967741935 500C882.5826612903226 722.265625 705.9879032258065 897.0703125 485.7822580645162 897.0703125M669.6129032258065 615.234375V532.2265625H317.0100806451613V615.234375zM669.6129032258065 459.375V376.3671875H317.0100806451613V459.375z" />
    <glyph glyph-name="fa6-brands-creative-commons-sa"
      unicode="&#xEA11;"
      horiz-adv-x="970" d="M484.2177419354838 984.375C761.5282258064515 984.375 970 769.3359375 970 500C970 212.6953125 738.2560483870968 15.625 484.2177419354838 15.625C222.1612903225806 15.625 0 229.4921875 0 500C0 759.5703125 204.7560483870968 984.375 484.2177419354838 984.375M485.7822580645161 897.0703125C254.625 897.0703125 87.4173387096774 705.859375 87.4173387096774 500C87.4173387096774 285.546875 265.7721774193548 103.90625 485.7822580645161 103.90625C687.6048387096773 103.90625 882.3870967741935 262.3046874999999 882.3870967741935 500C882.5826612903226 722.265625 705.9879032258065 897.0703125 485.7822580645162 897.0703125M269.2923387096774 568.359375C294.7157258064516 732.2265625 426.7217741935484 755.2734375 482.2620967741935 755.2734375C677.4354838709678 755.2734375 731.6068548387095 594.140625 731.6068548387095 493.1640625C731.6068548387095 368.9453125 651.4254032258063 233.59375 479.524193548387 233.59375C403.4495967741935 233.59375 285.7197580645161 272.65625 265.5766129032257 423.046875H387.8044354838709C390.7379032258064 364.2578125 426.1350806451612 334.7656250000001 494.3870967741935 334.7656250000001C539.9536290322579 334.7656250000001 607.8145161290322 370.3125 607.8145161290322 496.4843750000001C607.8145161290322 657.6171875000001 511.7923387096773 653.90625 496.9294354838709 653.90625Q399.8316532258064 653.90625 387.8044354838709 568.3593750000001H423.3971774193548L327.1794354838709 472.2656250000001L231.3528225806451 568.3593750000001z" />
    <glyph glyph-name="fa6-brands-creative-commons"
      unicode="&#xEA12;"
      horiz-adv-x="970" d="M480.75625 580.33203125L415.7897177419356 546.58203125C397.3479838709678 584.82421875 366.4292338709678 585.5078125 362.0877016129033 585.5078125C318.8092741935485 585.5078125 297.1211693548388 556.97265625 297.1211693548388 499.8828125C297.1211693548388 453.84765625 315.1326612903227 414.2578125 362.0877016129033 414.2578125C390.3858870967743 414.2578125 410.2943548387097 428.10546875 421.8717741935485 455.78125L481.6167338709678 425.5078125C469.5504032258065 403.02734375 431.3762096774194 349.375 354.3042338709678 349.375C310.1066532258065 349.375 209.6647177419355 369.53125 209.6647177419355 499.86328125C209.6647177419355 614.4921875 293.7574596774194 650.37109375 351.7032258064517 650.37109375C411.7806451612903 650.390625 454.7657258064517 627.03125 480.75625 580.33203125M760.5112903225806 580.33203125L696.4052419354838 546.58203125C677.8266129032257 585.1953125 646.1060483870967 585.5078125 641.8427419354839 585.5078125C598.5447580645161 585.5078125 576.8762096774194 556.97265625 576.8762096774194 499.8828125C576.8762096774194 453.88671875 594.9268145161291 414.2578125 641.8427419354839 414.2578125C670.101814516129 414.2578125 690.0493951612902 428.10546875 701.5681451612903 455.78125L762.1931451612903 425.5078125C758.0862903225807 418.18359375 720.3618951612904 349.375 634.9002016129033 349.375C590.5266129032258 349.375 490.260685483871 368.65234375 490.260685483871 499.86328125C490.260685483871 614.453125 574.2947580645161 650.37109375 632.2991935483872 650.37109375C692.357056451613 650.390625 735.1270161290323 627.03125 760.5112903225806 580.33203125M484.1395161290322 984.27734375C204.8342741935484 984.27734375 0 759.55078125 0 499.90234375C0 229.4140625 222.1612903225806 15.52734375 484.1395161290322 15.52734375C738.2364919354837 15.52734375 970 212.5390625 970 499.90234375C970 769.1796875 761.4891129032258 984.27734375 484.1395161290323 984.27734375M485.8409274193548 103.7890625C265.752620967742 103.7890625 87.4760080645162 285.5078125 87.4760080645162 499.90234375C87.4760080645162 705.80078125 254.5467741935485 896.9140625 485.8800403225807 896.9140625C705.9487903225807 896.9140625 882.5239919354839 722.1875 882.5239919354839 499.9218750000001C882.504435483871 262.2460937500001 687.5852822580646 103.7890625000001 485.8409274193549 103.7890625000001" />
    <glyph glyph-name="fa6-brands-mastodon"
      unicode="&#xEA13;"
      horiz-adv-x="880" d="M850.5357142857144 650.17578125C850.5357142857144 840.01953125 725.3910714285715 895.68359375 725.3910714285715 895.68359375C602.5839285714286 951.73828125 276.4339285714286 951.15234375 154.8053571428571 895.68359375C154.8053571428571 895.68359375 29.6410714285714 840.01953125 29.6410714285714 650.17578125C29.6410714285714 424.19921875 16.6767857142857 143.53515625 237.1285714285714 85.5273437499999C316.7017857142857 64.62890625 385.0785714285714 60.1367187499999 440.0982142857143 63.26171875C539.9035714285714 68.73046875 595.9053571428572 98.61328125 595.9053571428572 98.61328125L592.5660714285714 170.68359375S521.2428571428571 148.41796875 441.0803571428571 150.9570312499999C361.7035714285714 153.6914062499999 278.0446428571429 159.5507812499999 265.0214285714286 256.4257812499999A201.3392857142857 200.1953125 0 0 0 263.2535714285714 283.5742187499999C431.4553571428571 242.7539062499999 574.8875 265.8007812499999 614.3696428571428 270.4882812499999C724.6053571428571 283.5742187499999 820.6196428571428 351.1523437499999 832.8571428571429 412.87109375C852.1071428571429 510.13671875 850.5357142857143 650.17578125 850.5357142857143 650.17578125M702.9785714285714 405.64453125H611.3839285714286V628.69140625C611.3839285714286 725.76171875 485.6696428571428 729.47265625 485.6696428571428 615.21484375V493.14453125H394.6642857142857V615.234375C394.6642857142857 729.4921875 268.95 725.78125 268.95 628.7109375V405.6640625H177.1589285714286C177.1589285714286 644.140625 166.9446428571429 694.53125 213.3214285714286 747.4609375C264.1964285714286 803.90625 370.1107142857143 807.6171875 417.2732142857144 735.546875L440.0589285714286 697.4609375L462.844642857143 735.546875C510.2035714285715 808.0078125 616.294642857143 803.515625 666.7964285714287 747.4609375C713.369642857143 694.140625 702.9392857142859 643.9453125 702.9392857142859 405.6640625z" />
    <glyph glyph-name="fa6-brands-square-bluesky"
      unicode="&#xEA14;"
      horiz-adv-x="880" d="M125.7142857142857 937.5C56.375 937.5 0 881.4453125 0 812.5V187.5C0 118.5546875 56.375 62.5 125.7142857142857 62.5H754.2857142857142C823.6249999999999 62.5 879.9999999999999 118.5546875 879.9999999999999 187.5V812.5C879.9999999999999 881.4453125 823.6249999999999 937.5 754.2857142857142 937.5zM440 516.796875C468.4821428571428 575.390625 546.0714285714286 684.375 618.1607142857143 738.0859375C670.2142857142858 776.953125 754.2857142857142 806.8359375 754.2857142857142 711.328125C754.2857142857142 692.1875 743.2857142857142 550.9765625 736.8035714285713 528.125C714.4107142857142 448.4374999999999 632.6964285714284 428.125 560.017857142857 440.4296875C687.1071428571427 418.9453125 719.517857142857 347.65625 649.5892857142856 276.3671875C516.9999999999998 141.015625 459.0535714285712 310.3515625 444.1249999999999 353.7109375L443.5357142857141 355.46875C441.767857142857 360.546875 440.7857142857141 363.4765625 439.9999999999998 363.4765625S438.2321428571426 360.546875 436.4642857142855 355.46875L435.8749999999997 353.7109375C420.9464285714284 310.3515625000001 362.9999999999997 141.2109375 230.410714285714 276.3671875C160.6785714285712 347.65625 192.8928571428569 418.9453125 319.9821428571426 440.4296875C247.3035714285712 428.125 165.5892857142855 448.4375 143.1964285714283 528.125C136.7142857142855 550.9765625 125.7142857142855 692.1875 125.7142857142855 711.328125C125.7142857142855 806.8359375 209.9821428571426 776.7578125 261.8392857142855 738.0859375C333.9285714285712 684.375 411.5178571428569 575.1953125 439.9999999999997 516.796875" />
    <glyph glyph-name="fa6-brands-windows"
      unicode="&#xEA15;"
      horiz-adv-x="880" d="M0 816.9921875L360.6428571428572 866.40625V519.921875H0zM0 183.0078125L360.6428571428572 133.59375V475.78125H0zM400.3214285714286 128.3203125L880.0000000000001 62.5V475.78125H400.3214285714286zM400.3214285714286 871.6796875V519.921875H880.0000000000001V937.5z" />
    <glyph glyph-name="fa6-solid-landmark-dome"
      unicode="&#xEA16;"
      horiz-adv-x="1000" d="M484.375 1000H515.625C541.6015625 1000 562.5 979.1015625 562.5 953.125V932.2265625C719.53125 906.0546875 843.5546875 782.03125 869.7265625 625H875C909.5703125 625 937.5 597.0703125 937.5 562.5S909.5703125 500 875 500H125C90.4296875 500 62.5 527.9296875 62.5 562.5S90.4296875 625 125 625H130.2734375C156.4453125 782.03125 280.46875 906.0546875 437.5 932.2265625V953.125C437.5 979.1015625 458.3984375 1000 484.375 1000M125 437.5H250V187.5H328.125V437.5H453.125V187.5H546.875V437.5H671.875V187.5H750V437.5H875V179.1015625C876.171875 178.515625 877.34375 177.734375 878.515625 176.9531249999999L972.265625 114.4531249999999C995.1171875 99.2187499999999 1005.4687499999998 70.703125 997.4609375 44.3359375S965.0390625 0 937.5 0H62.5C34.9609375 0 10.7421875 17.96875 2.734375 44.3359375S4.8828125 99.21875 27.9296875 114.4531249999999L121.6796875 176.9531249999999C122.8515625 177.7343749999999 124.0234375 178.3203124999999 125.1953125 179.1015625z" />
    <glyph glyph-name="famicons-hardware-chip-sharp"
      unicode="&#xEA17;"
      horiz-adv-x="1000" d="M312.5 687.5H687.5V312.5H312.5zM937.5 613.28125V699.21875H875V828.125A46.875 46.875 0 0 1 828.125 875H699.21875V937.5H613.28125V875H542.96875V937.5H457.03125V875H386.71875V937.5H300.78125V875H171.875A46.875 46.875 0 0 1 125 828.125V699.21875H62.5V613.28125H125V542.96875H62.5V457.03125H125V386.71875H62.5V300.78125H125V171.875A46.875 46.875 0 0 1 171.875 125H300.78125V62.5H386.71875V125H457.03125V62.5H542.96875V125H613.28125V62.5H699.21875V125H828.125A46.875 46.875 0 0 1 875 171.875V300.78125H937.5V386.71875H875V457.03125H937.5V542.96875H875V613.28125zM250 750H750V250H250z" />
    <glyph glyph-name="fluent-video-360-20-filled"
      unicode="&#xEA18;"
      horiz-adv-x="1000" d="M198.5 799A85 85 0 0 1 100 715.1500000000001V284.9A85 85 0 0 1 198.5 201.05Q236.0000000000001 207.05 273.5 211.5999999999999A1900.000000000001 1900.000000000001 0 0 0 801.5000000000001 201.0999999999999Q806.4000000000001 200.2499999999999 811.1500000000002 200.05A85 85 0 0 1 900 284.9V715.1500000000001A85 85 0 0 1 801.5 799A1894.9999999999995 1894.9999999999995 0 0 0 198.4999999999999 799M800 251.9A1950 1950 0 0 1 650 269.4V400.0500000000001H750A50 50 0 0 0 800 350.05zM600.0000000000001 272.6500000000001A1950 1950 0 0 1 400.0000000000001 272.6500000000001V399.9999999999999A50 50 0 0 0 450.0000000000001 450H550A50 50 0 0 0 600.0000000000001 399.9999999999999zM350.0000000000001 269.4000000000001A1950 1950 0 0 1 200.0000000000001 251.9000000000001V350.0500000000002A50 50 0 0 0 250.0000000000001 400.0500000000002H350.0000000000001zM500 500A50 50 0 1 0 500 600A50 50 0 0 0 500 500M325 500A50 50 0 1 0 225 500A50 50 0 0 0 325 500M774.9999999999999 500A50 50 0 1 0 674.9999999999999 500A50 50 0 0 0 774.9999999999999 500" />
    <glyph glyph-name="game-icons-asteroid"
      unicode="&#xEA19;"
      horiz-adv-x="1000" d="M493.408203125 929.087890625C481.509765625 929.076171875 469.919921875 928.263671875 458.708984375 926.41796875C445.544921875 896.90625 428.724609375 863.26953125 428.724609375 863.26953125L364.755859375 889.544921875C333.142578125 874.681640625 343.560546875 830.892578125 325.576171875 814.466796875C271.107421875 770.072265625 161.826171875 679.962890625 150.33203125 648.970703125C125.845703125 582.94921875 113.1640625 512.544921875 111.259765625 443.9902343750001C139.56640625 428.873046875 172.484375 403.4765625000001 203.072265625 376.158203125C231.0722656250001 348.1738281250001 271.744140625 315.005859375 282.8144531250001 279.056640625L286.9082031250001 265.056640625L273.9042968750001 258.447265625C251.5097656250001 248.173828125 255.5058593750001 225.4199218749999 251.8828125000001 207.939453125L217.5039062500001 215.3027343749999C219.8828125000001 240.6972656249999 224.658203125 264.0527343749999 243.2968750000001 279.9902343749999C226.1816406250001 306.646484375 201.1835937500001 330.6230468749999 179.6562500000001 349.9316406249999C157.2851562500001 369.912109375 132.2929687500001 389.0175781249999 111.427734375 402.5624999999999C114.6972656250001 311.787109375 113.7851562500001 243.109375 152.9414062500001 178.720703125L215.3339843750001 168.771484375L214.2539062500001 113.98046875L296.8125000000001 120.2734375L286.4609375000001 61.1328124999999C466.5722656250001 -13.6328125 770.5039062500001 173.6796875 849.6679687500001 377.9746093749999C866.6308593750002 421.75390625 943.7363281250002 466.337890625 947.1210937500002 510.2343749999999C952.4609375000002 579.515625 930.7734375000002 647.0703124999999 892.9667968750002 706.9921875C866.0234375000002 681.17578125 834.7832031250002 673.525390625 802.0292968750002 687.859375L841.5898437500002 641.2578124999999L814.7871093750002 618.5078125L761.2714843750002 681.5410156249999L758.8496093750002 717.5683593749999C747.6054687500002 727.8867187499999 736.9941406250002 739.7597656249999 727.5097656250002 752.6074218749999L661.2011718750002 733.1347656249999L651.2929687500003 766.8652343749999L707.9785156250003 783.5097656249999C700.5917968750003 797.5273437499999 694.8730468750005 812.1152343749999 691.5917968750003 826.8183593749999C686.3300781250003 850.3808593749999 687.4589843750005 875.2246093749999 700.7714843750003 895.8144531249999C700.9082031250003 896.0253906249999 701.0546875000003 896.2246093749999 701.1933593750003 896.4335937499999C630.8457031250003 905.9414062499998 557.6582031250003 929.1562499999998 493.4062500000004 929.0859374999998zM730.2968750000001 876.732421875C723.509765625 866.232421875 721.9902343750001 852.015625 725.9062500000001 834.48046875S739.3085937500001 797.068359375 751.8828125000001 778.9140625C764.4609375000001 760.763671875 780.0976562500001 744.28515625 795.2734375000001 732.865234375C840.4687500000001 707.638671875 876.8398437500001 717.703125 871.6093750000001 766.005859375C867.9179687500001 797.5234375 837.3515625000001 823.958984375 825.7890625000002 835.8359375C801.0722656250002 861.21484375 751.3808593750002 903.86328125 730.2968750000002 876.734375zM659.5800781250001 868.400390625L641.083984375 826.833984375L592.052734375 808.689453125L556.2324218750001 828.923828125zM455.845703125 811.94921875L515.056640625 790.32421875L569.498046875 699.96484375L632.0957031250001 672.3359375L617.8964843750001 640.171875L545.1230468750001 672.30078125zM370.123046875 752.06640625C388.921875 752.0859375 408.970703125 746.5546875 420.546875 728.990234375C432.4921875 719.041015625 452.5078125 712.384765625 474.93359375 703.958984375L462.56640625 671.044921875C451.23828125 675.302734375 438.20703125 679.140625 425.529296875 684.708984375C423.482421875 677.833984375 420.4746093750001 671.251953125 417.017578125 665.3046875A126.953125 126.953125 0 0 0 411.216796875 656.271484375C435.8457031250001 643.11328125 458.134765625 632.8671875 470.044921875 631.845703125L467.0371093750001 596.818359375C440.9160156250001 599.060546875 413.9316406250001 613.529296875 386.5000000000001 629.328125A136.71875 136.71875 0 0 0 376.3046875000001 621.447265625C365.3320312500001 613.82421875 351.8066406250001 606.55859375 337.1562500000001 600.939453125C342.8691406250001 571.798828125 343.3046875000001 542.134765625 342.8984375000001 520.46484375L307.748046875 521.123046875C308.119140625 540.7421875 307.291015625 567.36328125 302.9628906250001 591.654296875C291.263671875 589.84765625 279.4355468750001 589.583984375 267.9160156250001 592.40234375Q267.6542968750001 592.46484375 267.3964843750001 592.5390625C267.5585937500001 566.06640625 263.5253906250001 537.73828125 244.0566406250001 509.77734375L215.2089843750001 529.865234375C236.4394531250001 560.357421875 232.7480468750001 590.056640625 230.4511718750001 626.005859375C227.3925781250001 635.78125 227.5703125000001 646.130859375 230.0019531250001 655.279296875C233.2871093750001 667.642578125 239.9628906250001 678.494140625 247.9453125000001 688.375C263.9140625000001 708.13671875 285.5000000000001 724.23828125 304.2089843750001 734.25390625C327.24609375 744.13671875 347.9355468750001 752.0078125 370.1269531250001 752.06640625zM368.82421875 716.88671875Q366.94921875 716.849609375 364.91015625 716.6875C350.2578125 715.490234375 332.4101562500001 709.470703125 320.79296875 703.25C306.388671875 695.54296875 287.1015625 680.8984375 275.28515625 666.27734375C269.380859375 658.966796875 265.431640625 651.720703125 263.9765625 646.25C261.73046875 636.328125 268.046875 628.625 276.26171875 626.548828125C282.16015625 625.107421875 290.83203125 625.109375 300.47265625 626.869140625C319.75 630.388671875 342.552734375 640.8046875 356.240234375 650.314453125C366.541015625 657.474609375 379.41015625 670.568359375 386.623046875 682.974609375C394.142578125 707.873046875 387.583984375 717.232421875 368.826171875 716.88671875zM876.5449218749999 643.3515625L901.2363281249998 521.265625L794.2402343749999 441.7011718749999L858.7128906249999 552.8144531249999zM756.7988281249999 602.82421875L763.0136718749999 568.220703125L633.8535156249999 545.01171875L615.005859375 495.8203124999999L565.689453125 472.5117187499999L608.12109375 576.1054687499998zM734.0839843749999 476.203125L765.9199218749999 461.30078125C751.7871093749999 431.10546875 746.7128906249999 414.4609374999999 748.3925781249999 396.1445312499999C760.1464843749999 395.5820312499999 772.091796875 394.2382812499999 783.9824218749999 392.3671874999999L778.5214843749999 357.6406249999999C738.1542968749999 363.9882812499999 700.0703124999999 360.8242187499999 681.0351562499999 347.4999999999999C671.5175781249999 340.8398437499999 665.6718749999999 332.591796875 663.2851562499999 318.41796875C660.8964843749998 304.2499999999999 662.8749999999999 283.66015625 672.8027343749998 255.9238281249999C643.9687499999999 245.5527343749999 617.1679687499998 237.6738281249999 587.4824218749999 227.728515625L576.3183593749999 261.0644531249999L629.9414062499999 279.0273437499999C626.7675781249999 295.6953124999999 626.3281249999998 310.6874999999999 628.6171874999999 324.26171875C632.2187499999998 345.642578125 643.3632812499999 363.078125 658.5664062499999 374.599609375C653.5507812499999 385.11328125 648.4101562499999 396.259765625 644.7148437499999 408.55078125C639.2617187499999 426.689453125 643.9921874999999 462.53515625 643.6210937499999 462.5703125C643.6210937499999 462.5703125 674.3359374999999 432.12890625 678.3828124999999 418.6699218750001C681.0644531249999 409.7500000000001 685.3984374999999 400.2773437500001 690.1210937499999 390.2558593750001C697.6015624999998 392.5175781250001 705.4257812499999 394.0898437500001 713.4902343749998 395.0800781250001C712.1425781249998 420.1386718750001 719.4121093749998 444.8691406250001 734.0820312499998 476.2050781250001zM450.0683593749999 468.4960937499999L407.3886718749999 377.3164062499999L404.4785156249999 250.2519531249998L370.5332031249999 383.1347656249998S442.3105468749999 468.4921874999999 450.0683593749999 468.4921874999999zM525.4082031249999 195.3515625A166.015625 166.015625 0 0 0 540.4277343749999 194.7265625C567.0449218749999 192.4374999999999 593.728515625 184.70703125 619.978515625 176.890625L609.9453125 143.1953125C583.9746093749999 150.9296874999999 559.14453125 157.8320312499999 537.4179687499999 159.6992187499999C526.7148437499999 160.6171875 516.955078125 160.40234375 507.9257812499999 158.70703125L478.8671874999999 186.33984375C492.2011718749999 192.037109375 506.2499999999999 194.6953125 520.3964843749999 195.24609375A148.4375 148.4375 0 0 0 525.4121093749998 195.3515625zM449.333984375 165.908203125L476.6445312499999 139.931640625C455.3710937499999 106.65625 448.2890625 87.67578125 415.74609375 67.041015625C418.9492187499999 77.931640625 421.609375 98.783203125 427.23046875 119.7441406249999C431.4804687499999 135.583984375 437.578125 152.54296875 449.3398437499999 165.9062499999999z" />
    <glyph glyph-name="game-icons-eclipse"
      unicode="&#xEA1A;"
      horiz-adv-x="1000" d="M265.015625 963.8671875C251.73828125 817.69140625 218.44921875 797.08984375 54.259765625 847.3515625C219.982421875 745.74609375 197.951171875 720.48828125 40.89453125 658.01953125C212.267578125 678.078125 242.6328125 648.46875 179.078125 486.9375C213.853515625 540.765625 242.5546875 573.84765625 269.47265625 593.32421875C246.400390625 538.12890625 233.642578125 477.5546875000001 233.642578125 414.001953125C233.642578125 249.5800781249999 319.013671875 105.486328125 447.814453125 22.6425781249999C366.517578125 108.2558593749999 315.615234375 223.2285156249999 315.615234375 350.5234374999999C315.615234375 614.044921875 529.3847656249999 827.8769531249999 792.9101562499999 827.8769531249999C853.30078125 827.8769531249999 911.5820312499998 816.6230468749999 964.7851562499998 796.1386718749999C889.4257812499999 848.619140625 797.759765625 879.3906249999999 699.0351562499999 879.3906249999999C591.1113281249999 879.3906249999999 491.7304687499999 842.66796875 412.7812499999999 781.0019531249999C421.8183593749999 817.6874999999999 446.7460937499999 855.36328125 492.9179687499999 899.9589843749999C371.4453125 822.37890625 299.86328125 813.21484375 265.01953125 963.8671875zM284.60546875 813.109375A75.78125 75.78125 0 0 0 317.56640625 805.54296875C345.8984375 791.875 361.94140625 762.9453125 360.53515625 733.3984375A467.3828125 467.3828125 0 0 1 306.640625 664.3671875C288.994140625 658.990234375 269.384765625 659.93359375 251.46484375 668.578125C213.6328125 686.826171875 197.75390625 732.25 216.00390625 770.08203125C229.119140625 797.26953125 256.3125 813.12109375 284.607421875 813.109375z" />
    <glyph glyph-name="game-icons-mesh-network"
      unicode="&#xEA1B;"
      horiz-adv-x="1000" d="M710.15625 928.75C666.7968750000001 928.75 632.03125 893.984375 632.03125 850.625C632.03125 807.20703125 666.7968750000001 772.4609375 710.15625 772.4609375S788.28125 807.20703125 788.28125 850.625C788.28125 893.984375 753.515625 928.75 710.15625 928.75M599.4140625000001 827.24609375C495.5078125000001 790.234375 387.1093750000001 758.984375 269.3359375000001 738.8671875C272.8515625000001 729.8828125 274.8046875000001 720.1171875 274.8046875000001 709.9609375C274.8046875000001 700.5859375 273.2421875000001 691.6015625 270.1171875000001 683.3984375C458.0078125000001 658.203125 627.1484375 613.0859375 773.6328125 542.96875C776.7578125000001 554.4921875 782.421875 565.0390625 789.8437500000001 574.0234375C650.7812500000001 641.015625 492.1875000000001 685.7421875 318.1640625000001 712.109375C422.0703125000001 732.8125 518.9453125000001 761.71875 611.9140625000001 794.53125C606.0546875000001 804.6875 601.7578125000001 815.60546875 599.4140625000002 827.24609375M790.4296875000002 770.8984375C782.0312500000002 762.5 772.4609375000002 755.2734375 761.9140625000001 749.8046875C791.7968750000002 701.3671875 812.6953125000001 650.9765625 824.0234375000002 597.8515625C832.4218750000002 600.78125 841.6015625000002 602.5390625 850.9765625000002 602.5390625C853.7109375000001 602.5390625 856.4453125000002 602.34375 858.9843750000002 602.1484375C846.6796875000002 661.3281250000001 823.4375000000002 717.578125 790.4296875000002 770.8984375000001M194.7265625000002 754.8828125000001C169.7070312500002 754.8828125000001 149.8046875000002 734.9609375 149.8046875000002 709.9609375000001S169.7070312500002 665.0390625000001 194.7265625000002 665.0390625000001C219.7265625000002 665.0390625000001 239.6484375000002 684.9609375000001 239.6484375000002 709.9609375000001S219.7265625000002 754.8828125000001 194.7265625000002 754.8828125000001M262.5000000000002 667.7734375000001C256.2500000000003 657.6171875000002 247.8515625000002 649.0234375000001 237.8906250000002 642.5781250000001C300.5859375000002 578.9062500000001 366.9921875000002 513.8671875000001 473.4375000000002 485.546875C473.4375000000002 487.3046875 473.2421875000002 489.2578125 473.2421875000002 491.0156250000001C473.2421875000002 501.3671875000001 475.7812500000002 511.1328125000001 480.0781250000002 519.9218750000001C383.3984375000002 546.2890625000001 323.8281250000002 605.4687500000001 262.5000000000002 667.7734375M151.1718750000002 642.9687500000001C108.6718750000002 510.5468750000001 98.2031250000002 375.0000000000001 88.1054687500002 240.6250000000001C92.2656250000002 241.6015625000001 96.5820312500002 241.9921875000001 100.9960937500002 241.9921875000001C108.7890625000002 241.9921875000001 116.2500000000002 240.6250000000001 123.1640625000002 237.890625C133.3007812500002 371.4843750000001 143.8085937500002 503.515625 184.2773437500002 630.6640625C172.2070312500002 632.2265625 160.9570312500002 636.5234375 151.1718750000002 642.96875M850.9765625000002 567.3828125C825.9765625000002 567.3828125 806.0546875000002 547.4609375 806.0546875000002 522.4609375S825.9765625000002 477.5390625 850.9765625000002 477.5390625S895.8984375000002 497.4609375 895.8984375000002 522.4609375S875.9765625000002 567.3828125 850.9765625000002 567.3828125M770.8984375000002 524.0234375C715.4296875000002 512.6953125 660.3515625000001 502.9296875 602.9296875000002 503.515625C603.7109375000001 499.4140625 604.1015625000002 495.3125000000001 604.1015625000002 491.0156250000001C604.1015625000002 483.2031250000001 602.7343750000002 475.5859375000001 600.0000000000002 468.5546875000001C662.5000000000002 467.3828125 721.0937500000002 477.734375 778.1250000000002 489.6484375000001C773.4375000000002 499.6093750000001 770.8984375000002 510.7421875000001 770.8984375000002 522.4609375000001zM538.6718750000001 521.2890625C521.6796875000001 521.2890625 508.3984375000001 508.0078125 508.3984375000001 491.0156249999999S521.6796875000001 460.7421875 538.6718750000001 460.7421875S568.9453125000001 474.0234375 568.9453125000001 491.0156249999999S555.6640625000001 521.2890625 538.6718750000001 521.2890625M779.296875 486.9140625C670.703125 397.2656250000001 571.09375 302.5390625 499.8046875 192.578125C511.328125 189.0625 521.6796875 182.8125 530.2734375 174.8046875C598.4375 279.296875 694.7265625 371.6796875 801.3671875 459.765625C792.1875 466.9921874999999 784.5703125 476.3671875 779.296875 486.9140624999999M482.421875 457.6171874999999C388.8671875 366.9921875 268.359375 295.1171874999999 144.82421875 224.2187499999999C153.33984375 216.0156249999999 159.58984375 205.4687499999999 162.5 193.7499999999999C286.71875 264.84375 410.15625 338.0859375 507.8125 433.3984375C497.265625 439.0624999999999 488.4765625 447.4609374999999 482.421875 457.6171874999999M832.8125 444.5312499999999C835.3515625 388.2812499999999 844.53125 332.6171874999999 860.7421875 278.125C870.1171875 284.7656249999999 881.640625 289.0625 893.9453125 289.84375C879.1015624999999 340.625 870.703125 391.9921875 868.1640625 444.3359375C862.5 442.96875 856.8359375 442.3828125 850.9765625 442.3828125C844.7265625 442.3828125 838.671875 443.1640625 832.8125 444.53125M897.8515625 254.8828125C881.4453125 254.8828125 868.5546875 241.9921875 868.5546875 225.5859375S881.4453125 196.2890625 897.8515625 196.2890625S927.1484375 209.1796875 927.1484375 225.5859375S914.2578124999998 254.8828125 897.8515625 254.8828125M100.99609375 206.8359375C85.234375 206.8359375 72.83203125 194.3359375 72.83203125 178.7109375C72.83203125 162.890625 85.234375 150.390625 100.99609375 150.390625S129.16015625 162.890625 129.16015625 178.7109375C129.16015625 194.3359375 116.7578125 206.8359375 100.99609375 206.8359375M836.328125 206.2499999999999C749.0234375 158.3984374999999 653.125 142.5781249999999 553.3203124999999 136.7187499999999C555.0781249999999 130.0781249999999 556.0546874999999 123.2421874999999 556.0546874999999 116.2109374999999C556.0546874999999 111.1328124999999 555.4687499999999 106.2499999999999 554.6874999999999 101.5624999999999C658.3984374999999 107.6171874999999 761.3281249999999 124.2187499999999 856.0546874999999 176.7578124999999C846.8749999999999 184.5703124999999 840.0390624999999 194.7265624999999 836.3281249999999 206.2499999999999M163.88671875 185.9375C164.16015625 183.59375 164.31640625 181.25 164.31640625 178.7109375C164.31640625 168.9453125 162.0703125 159.765625 158.0859375 151.3671875L396.09375 111.71875C395.8984375000001 113.28125 395.8984375000001 114.6484375 395.8984375000001 116.2109375C395.8984375000001 126.7578125 398.046875 136.9140625 401.7578125000001 146.2890625zM475.9765625 161.1328125C450.9765624999999 161.1328125 431.0546875 141.2109375 431.0546875 116.2109375S450.9765624999999 71.2890625 475.9765625 71.2890625S520.8984375 91.2109375 520.8984375 116.2109375S500.9765625 161.1328125 475.9765625 161.1328125" />
    <glyph glyph-name="game-icons-stars-stack"
      unicode="&#xEA1C;"
      horiz-adv-x="1000" d="M501.2695312499999 923.859375L404.205078125 727.17578125L187.154296875 695.640625L344.2109375 542.544921875L307.13671875 326.373046875L501.2695312499999 428.4355468750001L695.4042968749999 326.3730468750001L658.3281249999999 542.5449218750001L815.384765625 695.6386718750002L598.3398437499999 727.1738281250002zM218.75 396.82421875L166.65234375 291.2578124999999L50.15625 274.3339843749999L134.453125 192.1601562499999L114.5546875 76.1386718749999L218.75 130.91796875L322.9453125 76.140625L303.0468750000001 192.162109375L387.3437500000001 274.333984375L270.8476562500001 291.2578125L218.75 396.826171875zM781.25 396.82421875L729.15234375 291.2578124999999L612.65625 274.3339843749999L696.9531250000001 192.1601562499999L677.0546875000001 76.1386718749999L781.25 130.91796875L885.4453125 76.140625L865.546875 192.162109375L949.8437500000002 274.333984375L833.3476562500001 291.2578125L781.25 396.826171875z" />
    <glyph glyph-name="gg-smartphone-chip"
      unicode="&#xEA1D;"
      horiz-adv-x="1000" d="M375 83.3333333333334A41.6666666666667 41.6666666666667 0 1 0 291.6666666666667 83.3333333333334A41.6666666666667 41.6666666666667 0 0 0 375 83.3333333333334M541.6666666666666 83.3333333333334A41.6666666666667 41.6666666666667 0 1 0 458.3333333333333 83.3333333333334A41.6666666666667 41.6666666666667 0 0 0 541.6666666666666 83.3333333333334M666.6666666666666 41.6666666666667A41.6666666666667 41.6666666666667 0 1 1 666.6666666666666 125.0000000000001A41.6666666666667 41.6666666666667 0 0 1 666.6666666666666 41.6666666666667M375 916.6666666666666A41.6666666666667 41.6666666666667 0 1 0 291.6666666666667 916.6666666666666A41.6666666666667 41.6666666666667 0 0 0 375 916.6666666666666M541.6666666666666 916.6666666666666A41.6666666666667 41.6666666666667 0 1 0 458.3333333333333 916.6666666666666A41.6666666666667 41.6666666666667 0 0 0 541.6666666666666 916.6666666666666M666.6666666666666 875A41.6666666666667 41.6666666666667 0 1 1 666.6666666666666 958.3333333333334A41.6666666666667 41.6666666666667 0 0 1 666.6666666666666 875M375 83.3333333333334A41.6666666666667 41.6666666666667 0 1 0 291.6666666666667 83.3333333333334A41.6666666666667 41.6666666666667 0 0 0 375 83.3333333333334M541.6666666666666 83.3333333333334A41.6666666666667 41.6666666666667 0 1 0 458.3333333333333 83.3333333333334A41.6666666666667 41.6666666666667 0 0 0 541.6666666666666 83.3333333333334M666.6666666666666 41.6666666666667A41.6666666666667 41.6666666666667 0 1 1 666.6666666666666 125.0000000000001A41.6666666666667 41.6666666666667 0 0 1 666.6666666666666 41.6666666666667M958.3333333333331 333.3333333333334A41.6666666666667 41.6666666666667 0 1 1 874.9999999999999 333.3333333333334A41.6666666666667 41.6666666666667 0 0 1 958.3333333333331 333.3333333333334M958.3333333333331 500A41.6666666666667 41.6666666666667 0 1 1 874.9999999999999 500A41.6666666666667 41.6666666666667 0 0 1 958.3333333333331 500M916.6666666666666 708.3333333333333A41.6666666666667 41.6666666666667 0 1 0 916.6666666666666 625A41.6666666666667 41.6666666666667 0 0 0 916.6666666666666 708.3333333333333M83.3333333333333 375A41.6666666666667 41.6666666666667 0 1 0 83.3333333333333 291.6666666666667A41.6666666666667 41.6666666666667 0 0 0 83.3333333333333 375M83.3333333333333 541.6666666666666A41.6666666666667 41.6666666666667 0 1 0 83.3333333333333 458.3333333333333A41.6666666666667 41.6666666666667 0 0 0 83.3333333333333 541.6666666666665M125 666.6666666666665A41.6666666666667 41.6666666666667 0 1 1 41.6666666666667 666.6666666666665A41.6666666666667 41.6666666666667 0 0 1 125 666.6666666666665M708.3333333333333 749.9999999999999H291.6666666666667A41.6666666666667 41.6666666666667 0 0 1 250 708.3333333333333V291.6666666666665A41.6666666666667 41.6666666666667 0 0 1 291.6666666666667 249.9999999999999H708.3333333333333A41.6666666666667 41.6666666666667 0 0 1 749.9999999999999 291.6666666666665V708.3333333333334A41.6666666666667 41.6666666666667 0 0 1 708.3333333333333 750M291.6666666666667 833.3333333333334A125 125 0 0 1 166.6666666666666 708.3333333333334V291.6666666666668A125 125 0 0 1 291.6666666666667 166.6666666666668H708.3333333333333A125 125 0 0 1 833.3333333333333 291.6666666666668V708.3333333333334A125 125 0 0 1 708.3333333333333 833.3333333333334zM583.3333333333333 583.3333333333334H416.6666666666667V416.6666666666668H583.3333333333333zM333.3333333333333 666.6666666666667V333.3333333333334H666.6666666666666V666.6666666666667z" />
    <glyph glyph-name="gis-360"
      unicode="&#xEA1E;"
      horiz-adv-x="1000" d="M0 788.73V211.27C0.01 193.0699999999999 18.86 180.9699999999999 35.41 188.55C35.41 188.55 69.96 204.59 146.45 221.52S339.85 255.57 500 255.57S777.0600000000001 238.45 853.5500000000001 221.52C930.05 204.5899999999999 964.59 188.55 964.59 188.55C981.14 180.98 999.99 193.0600000000001 1000 211.27V788.73C999.99 806.63 981.73 818.71 965.2499999999998 811.73C965.2499999999998 811.73 807.7899999999998 744.43 499.9999999999999 744.43S34.75 811.73 34.75 811.73C17.87 817.77 0.4 802.2 0 788.74M50 753.7C113.9 733.43 266.43 694.44 500 694.44S886.1 733.4300000000001 950 753.7V309.44C870.2299999999999 307.16 788.2 315.04 700.0799999999999 350.3400000000001L517.95 553.96L364.16 424.92L289.92 474.42L144 319.58C113.83 306.0800000000001 84.77 289.2399999999999 50 289.54zM750.4000000000001 625.24A67.2 67.2 0 0 1 684.1200000000001 558.08A67.18 67.18 0 1 1 750.3900000000001 625.24" />
    <glyph glyph-name="gis-satellite"
      unicode="&#xEA1F;"
      horiz-adv-x="1000" d="M321.0300000000001 752.93A48.13 48.13 0 0 1 303.37 687.03L335.0700000000001 632.1L298.9400000000001 624.7L4.4900000000001 454.7L129.4900000000001 238.2L423.9400000000001 408.2000000000001L448.42 435.8L480.1200000000001 380.8699999999999A48.13 48.13 0 0 1 546.0200000000001 363.2099999999999L678.97 439.9700000000001A48.13 48.13 0 0 1 696.6300000000001 505.87L664.9300000000002 560.79L701.0600000000002 568.19L995.5100000000002 738.19L870.5100000000001 954.7L576.0600000000002 784.7L551.5800000000002 757.1L519.8800000000002 812.03A48.13 48.13 0 0 1 453.9800000000002 829.6800000000001zM72.79 436.4L332.5900000000001 586.4000000000001L407.5900000000001 456.5L147.79 306.5zM592.4000000000001 736.4L852.2100000000002 886.4L927.21 756.5L667.4100000000001 606.5zM702.4 350.8599999999999A74.5 74.5 0 0 0 611 297.7299999999999L598.3 249.37C664.55 231.9400000000001 733.0699999999999 271.78 750.7199999999999 337.9700000000001zM585.0999999999999 201.14L572.3999999999999 152.79C692.4299999999998 121.22 816.0199999999999 192.52 847.8599999999998 311.9600000000001L799.5599999999998 324.8200000000001C774.7 231.5800000000001 679.21 176.39 585.0999999999999 201.14M559.33 104.49L546.62 56.1199999999999C720.1800000000001 10.4799999999999 898.54 113.39 944.56 286.01L896.26 298.89C857.22 152.49 706.97 65.66 559.3299999999999 104.49" />
    <glyph glyph-name="github"
      unicode="&#xEA20;"
      horiz-adv-x="1000" d="M874.9666666666666 751.7308333333333C875.3625000000001 726.4583333333333 872.2208333333332 694.7295833333333 869.4083333333333 671.6375C868.3125 662.6308333333334 866.8208333333332 655.135 865.2208333333333 648.9779166666667C900.9458333333332 582.9166666666667 916.6666666666666 503.4416666666667 916.6666666666666 416.6666666666668C916.6666666666666 313.8166666666667 867.1958333333333 229.125 790.1583333333333 171.3708333333334C713.8291666666668 114.1458333333334 610.8583333333332 83.3333333333334 500 83.3333333333334C389.14125 83.3333333333334 286.1704166666667 114.1458333333334 209.8416666666667 171.3708333333334C132.8029166666667 229.125 83.3333333333333 313.8166666666667 83.3333333333333 416.6666666666668C83.3333333333333 503.4416666666667 99.055 582.9166666666667 134.78 648.9783333333334C133.1795833333333 655.135 131.6895833333333 662.63125 130.5925 671.6375C127.7804166666667 694.7295833333333 124.63875 726.4583333333333 125.03375 751.7308333333333C125.47875 780.2058333333333 129.2008333333333 808.6791666666667 133.3283333333333 836.9254166666667C135.2370833333334 849.9883333333333 138.2679166666667 862.2720833333333 152.45125 870.0345833333333C166.9395833333333 877.9641666666666 182.1975 875.0079166666667 197.2491666666667 870.7458333333334C248.0195833333333 856.3695833333334 295.6195833333333 836.205 340.3345833333334 811.96375C387.4791666666667 826.1304166666666 440.7625 833.3333333333334 500 833.3333333333334C559.2375 833.3333333333334 612.5208333333333 826.1304166666666 659.6666666666666 811.96375C704.3791666666667 836.205 751.9791666666666 856.3695833333334 802.7499999999999 870.7458333333334C817.8041666666667 875.0079166666667 833.0625 877.9641666666666 847.5500000000001 870.0345833333333C861.7333333333332 862.2720833333333 864.7625 849.9883333333333 866.6708333333332 836.9254166666667C870.8000000000001 808.6791666666667 874.5208333333331 780.2058333333333 874.9666666666666 751.7308333333333zM833.3333333333333 416.6666666666668C833.3333333333333 486.9666666666668 817.175 583.3333333333334 729.1666666666666 583.3333333333334C689.4916666666666 583.3333333333334 651.975 572.9083333333333 614.475 562.4833333333333C577.0083333333333 552.075 539.5625 541.6666666666667 500 541.6666666666667C460.4374999999999 541.6666666666667 422.9916666666667 552.075 385.52625 562.4833333333333C348.0254166666666 572.9083333333333 310.5066666666667 583.3333333333334 270.8333333333333 583.3333333333334C183.0745833333333 583.3333333333334 166.6666666666667 486.6791666666668 166.6666666666667 416.6666666666668C166.6666666666667 343.1833333333334 201.14375 282.0416666666667 259.8283333333333 238.0458333333334C319.2229166666666 193.5166666666668 403.7520833333333 166.6666666666668 500 166.6666666666668C596.2458333333334 166.6666666666668 680.7749999999999 193.5208333333334 740.1708333333332 238.0458333333334C798.8583333333332 282.0416666666667 833.3333333333333 343.1833333333334 833.3333333333333 416.6666666666668zM416.6666666666667 395.8333333333334C416.6666666666667 338.3041666666668 388.6845833333333 291.6666666666668 354.1666666666667 291.6666666666668C319.64875 291.6666666666668 291.6666666666667 338.3041666666668 291.6666666666667 395.8333333333334C291.6666666666667 453.3625 319.64875 500 354.1666666666667 500C388.6845833333333 500 416.6666666666667 453.3625 416.6666666666667 395.8333333333334zM645.8333333333333 291.6666666666668C680.3499999999999 291.6666666666668 708.3333333333333 338.3041666666668 708.3333333333333 395.8333333333334C708.3333333333333 453.3625 680.3499999999999 500 645.8333333333333 500C611.3166666666666 500 583.3333333333333 453.3625 583.3333333333333 395.8333333333334C583.3333333333333 338.3041666666668 611.3166666666666 291.6666666666668 645.8333333333333 291.6666666666668z" />
    <glyph glyph-name="gitlab"
      unicode="&#xEA21;"
      horiz-adv-x="1000" d="M227.2266666666667 860.8541666666666C237.6645833333334 870.0758333333333 251.0408333333333 875 264.6883333333333 875C278.3354166666666 875 291.7116666666667 870.0758333333333 302.15 860.8541666666666C302.4429166666667 860.5954166666667 302.7320833333333 860.3325 303.0179166666667 860.0654166666667C309.8016666666666 853.7233333333334 314.9608333333333 845.7216666666667 317.8875 836.7266666666667L381.77125 647.0575C387.4804166666667 630.1066666666667 403.3712500000001 618.6908333333333 421.2583333333334 618.6908333333333H577.2874999999999C595.1875 618.6908333333333 611.0875 630.1225 616.7874999999999 647.0895833333334L680.7916666666666 837.6266666666667C681.0416666666665 838.3679166666667 681.3125 839.1020833333333 681.6 839.8283333333334C684.8874999999999 848.0458333333333 690.0624999999999 855.2704166666667 696.5999999999999 860.9891666666667C707.0166666666667 870.12375 720.3291666666667 875 733.9083333333334 875C747.5583333333333 875 760.9333333333333 870.0758333333333 771.3708333333333 860.8541666666666C771.6624999999999 860.5954166666667 771.9541666666668 860.3325 772.2375 860.0654166666667C779.0291666666667 853.71875 784.1916666666666 845.7104166666667 787.1166666666666 836.7075L870.0333333333333 589.8733333333333L913.1958333333332 466.2708333333334C913.3958333333334 465.7 913.5833333333331 465.125 913.7583333333332 464.5458333333335C918.1499999999997 449.9625000000001 917.55 434.3708333333334 912.0875 420.175C906.7958333333333 406.4333333333334 897.3 394.9 885.1958333333334 386.9916666666668L571.1833333333333 166.2625000000001C528.0541666666666 135.9500000000001 470.5416666666666 135.9500000000001 427.4166666666667 166.2625000000001L112.6958333333333 387.4875L112.5054166666667 387.6208333333333C100.5566666666667 396.1208333333334 91.4583333333333 408.2333333333334 86.7858333333333 422.3958333333333C82.1254166666667 436.5166666666667 82.1858333333333 451.7416666666667 86.9508333333333 465.825L128.4858333333333 590.2920833333333L211.57 837.6266666666667C211.8191666666667 838.3679166666667 212.0891666666667 839.1020833333333 212.3795833333333 839.8283333333334C215.665 848.0454166666666 220.8425 855.2704166666667 227.38 860.9891666666667L227.2266666666667 860.8541666666666z" />
    <glyph glyph-name="heroicons-cpu-chip-20-solid"
      unicode="&#xEA22;"
      horiz-adv-x="1000" d="M700.0000000000001 700H300.0000000000001V299.9999999999999H700.0000000000001zM462.5 850V912.5A37.5 37.5 0 0 0 537.5000000000001 912.5V850H612.5V912.5A37.5 37.5 0 0 0 687.5 912.5V850H712.5A137.5 137.5 0 0 0 850.0000000000001 712.5V687.5H912.5000000000002A37.5 37.5 0 0 0 912.5000000000002 612.5H850.0000000000001V537.5H912.5000000000002A37.5 37.5 0 0 0 912.5000000000002 462.4999999999999H850.0000000000001V387.5H912.5000000000002A37.5 37.5 0 0 0 912.5000000000002 312.5H850.0000000000001V287.5A137.5 137.5 0 0 0 712.5 149.9999999999999H687.5V87.4999999999999A37.5 37.5 0 0 0 612.5 87.4999999999999V149.9999999999999H537.5000000000001V87.4999999999999A37.5 37.5 0 0 0 462.5000000000001 87.4999999999999V149.9999999999999H387.5000000000001V87.4999999999999A37.5 37.5 0 0 0 312.5000000000001 87.4999999999999V149.9999999999999H287.5000000000001A137.5 137.5 0 0 0 150 287.5V312.5H87.5A37.5 37.5 0 0 0 87.5 387.5H150V462.4999999999999H87.5A37.5 37.5 0 0 0 87.5 537.5H150V612.5H87.5A37.5 37.5 0 0 0 87.5 687.5H150V712.5A137.5 137.5 0 0 0 287.5000000000001 850H312.5000000000001V912.5A37.5 37.5 0 0 0 387.5000000000001 912.5V850zM225 712.5C225 747 253 775 287.5 775H712.5C747 775 775 747 775 712.5V287.4999999999999C775 252.9999999999999 747 224.9999999999999 712.5 224.9999999999999H287.5C253 224.9999999999999 225 252.9999999999999 225 287.4999999999999z" />
    <glyph glyph-name="hugeicons-satellite"
      unicode="&#xEA23;"
      horiz-adv-x="1000" d="M375 83.3333333333334L250 375L125 83.3333333333334zM758 444.375C811.875 390.5 838.8333333333334 363.5416666666667 832.4166666666667 321.9583333333334A125 125 0 0 0 831.0000000000001 314.7916666666668C821.0000000000001 273.9583333333333 793.5000000000001 262.5416666666667 738.6666666666667 239.7916666666668A413.6666666666667 413.6666666666667 0 0 0 198.1666666666667 780.375C220.875 835.25 232.25 862.6666666666667 273.1666666666667 872.7083333333334C275.0416666666667 873.125 278.375 873.8333333333334 280.25 874.125C321.9166666666667 880.5 348.8333333333333 853.5833333333334 402.7083333333333 799.7083333333334zM708.3333333333333 833.3333333333334A83.3333333333333 83.3333333333333 0 0 1 875 833.3333333333334A83.3333333333333 83.3333333333333 0 0 1 708.3333333333333 833.3333333333334M520.8333333333333 702.7916666666667L738.0416666666666 769.625L661.5416666666666 561.2916666666667" />
    <glyph glyph-name="ic-baseline-file-download"
      unicode="&#xEA24;"
      horiz-adv-x="1000" d="M791.6666666666666 625H625V875H375V625H208.3333333333333L499.9999999999999 333.3333333333334zM208.3333333333333 250V166.6666666666666H791.6666666666665V250z" />
    <glyph glyph-name="ic-baseline-ondemand-video"
      unicode="&#xEA25;"
      horiz-adv-x="1000" d="M875 875H125C78.75 875 41.6666666666667 837.9166666666666 41.6666666666667 791.6666666666667V291.6666666666668A83.3333333333333 83.3333333333333 0 0 1 125 208.3333333333334H333.3333333333333V125H666.6666666666666V208.3333333333334H875C920.8333333333334 208.3333333333334 957.9166666666666 245.8333333333334 957.9166666666666 291.6666666666668L958.3333333333331 791.6666666666667A83.3333333333333 83.3333333333333 0 0 1 874.9999999999999 875M874.9999999999999 291.6666666666668H125V791.6666666666667H875zM666.6666666666665 541.6666666666667L374.9999999999999 375.0000000000001V708.3333333333334z" />
    <glyph glyph-name="ic-baseline-panorama-photosphere"
      unicode="&#xEA26;"
      horiz-adv-x="1000" d="M891.6666666666666 528.3333333333333V406.25C887.5 404.1666666666667 801.2499999999999 370.8333333333334 752.9166666666666 357.5C713.75 346.6666666666667 592.9166666666667 327.0833333333334 500 327.0833333333334C345.8333333333333 327.0833333333334 208.3333333333334 356.2500000000001 118.3333333333334 402.0833333333334C115 403.75 111.6666666666667 404.5833333333333 108.3333333333334 406.25V593.3333333333334C359.1666666666667 711.6666666666667 633.3333333333333 715 891.6666666666667 593.3333333333334zM500.4166666666666 158.3333333333334C396.25 158.3333333333334 297.5 206.25 233.3333333333333 288.3333333333334C407.9166666666666 237.5 590.4166666666666 237.0833333333333 767.5 288.75A339.1666666666668 339.1666666666668 0 0 0 500.4166666666666 158.3333333333334M500 841.6666666666667C608.3333333333334 841.6666666666667 704.5833333333334 790.4166666666667 767.0833333333334 711.6666666666667C596.2500000000001 761.25 413.75 764.1666666666666 232.5000000000001 711.25C295 790.4166666666666 391.6666666666667 841.6666666666667 500 841.6666666666667M937.0833333333331 645.4166666666667C917.5 655 898.3333333333334 663.75 878.7499999999999 672.0833333333334C813.3333333333333 816.25 668.75 916.6666666666666 500 916.6666666666666S186.25 816.25 120.8333333333333 671.6666666666667C101.25 663.3333333333333 82.0833333333333 654.5833333333334 62.5 645.4166666666667C49.5833333333333 639.1666666666667 41.6666666666667 625.4166666666667 41.6666666666667 610.8333333333333V389.1666666666667C41.6666666666667 374.5833333333334 49.5833333333333 360.8333333333334 62.9166666666667 354.5833333333334C82.5 345 101.6666666666667 336.25 120.8333333333333 327.9166666666668C268.75 1.6666666666667 731.25 2.0833333333335 879.1666666666666 327.9166666666668C898.7499999999999 336.25 917.9166666666666 345.0000000000001 937.0833333333331 354.1666666666668C950 361.2500000000001 958.3333333333331 374.5833333333334 958.3333333333331 389.1666666666668V610.8333333333333A37.9166666666667 37.9166666666667 0 0 1 937.0833333333331 645.4166666666666" />
    <glyph glyph-name="ic-baseline-photo-camera"
      unicode="&#xEA27;"
      horiz-adv-x="1000" d="M366.6666666666667 500A133.3333333333334 133.3333333333334 0 0 1 633.3333333333333 500A133.3333333333334 133.3333333333334 0 0 1 366.6666666666667 500M375 916.6666666666666L298.75 833.3333333333334H166.6666666666667C120.8333333333333 833.3333333333334 83.3333333333333 795.8333333333334 83.3333333333333 750V250C83.3333333333333 204.1666666666666 120.8333333333333 166.6666666666666 166.6666666666667 166.6666666666666H833.3333333333333C879.1666666666666 166.6666666666666 916.6666666666666 204.1666666666666 916.6666666666666 250V750C916.6666666666666 795.8333333333334 879.1666666666666 833.3333333333333 833.3333333333333 833.3333333333333H701.2499999999999L625 916.6666666666666zM500 291.6666666666667C385 291.6666666666667 291.6666666666667 385 291.6666666666667 500S385 708.3333333333333 500 708.3333333333333S708.3333333333333 615 708.3333333333333 500S614.9999999999999 291.6666666666668 499.9999999999999 291.6666666666668" />
    <glyph glyph-name="ic-baseline-satellite-alt"
      unicode="&#xEA28;"
      horiz-adv-x="1000" d="M643.3333333333333 975.4166666666666L510.8333333333333 842.9166666666666C478.3333333333333 810.4166666666666 478.3333333333333 757.5 510.8333333333333 725L562.4999999999999 673.3333333333333L532.9166666666666 643.75L481.2499999999999 695.8333333333333C448.75 728.3333333333333 395.8333333333333 728.3333333333333 363.3333333333333 695.8333333333333L304.1666666666667 636.6666666666667C271.6666666666667 604.1666666666666 271.6666666666667 551.25 304.1666666666667 518.75L355.8333333333333 467.0833333333333L326.25 437.5L275 489.5833333333334C242.5 522.0833333333334 189.5833333333333 522.0833333333334 157.0833333333333 489.5833333333334L24.5833333333333 357.0833333333334C-7.9166666666667 324.5833333333335 -7.9166666666667 271.6666666666668 24.5833333333333 239.1666666666668L172.0833333333333 91.6666666666667C204.5833333333333 59.1666666666669 257.5 59.1666666666669 290 91.6666666666667L422.5 224.1666666666669C454.9999999999999 256.6666666666669 454.9999999999999 309.5833333333336 422.5 342.0833333333335L370.8333333333334 393.75L400.4166666666667 423.3333333333334L452.0833333333334 371.6666666666668C484.5833333333334 339.1666666666668 537.5000000000001 339.1666666666668 570.0000000000001 371.6666666666668L628.75 430.4166666666667C661.25 462.9166666666666 661.25 515.8333333333333 628.75 548.3333333333333L576.6666666666666 600L606.25 629.5833333333334L657.9166666666666 577.9166666666667C690.4166666666665 545.4166666666667 743.3333333333333 545.4166666666667 775.8333333333333 577.9166666666667L908.3333333333331 710.4166666666667C940.8333333333331 742.9166666666667 940.8333333333331 795.8333333333334 908.3333333333331 828.3333333333335L760.8333333333334 975.8333333333334C728.3333333333334 1008.3333333333334 675.8333333333334 1008.3333333333334 643.3333333333333 975.4166666666666M275 195.0000000000001L230.8333333333333 150.8333333333334L83.3333333333333 297.9166666666667L127.5 342.0833333333333zM363.3333333333333 283.3333333333335L319.1666666666666 239.1666666666668L171.6666666666666 386.6666666666668L215.8333333333333 430.8333333333334zM760.8333333333333 680.8333333333335L716.6666666666665 636.6666666666667L569.1666666666666 784.1666666666666L613.3333333333333 828.3333333333333zM849.1666666666666 769.1666666666667L804.9999999999999 725L657.5 872.5L702.0833333333334 916.6666666666666zM583.3333333333333 125V41.6666666666666A375 375 0 0 1 958.3333333333331 416.6666666666667H874.9999999999999C874.9999999999999 255.4166666666667 744.5833333333333 125 583.3333333333333 125M583.3333333333333 291.6666666666667V208.3333333333333C698.3333333333333 208.3333333333333 791.6666666666665 301.6666666666667 791.6666666666665 416.6666666666665H708.3333333333331C708.3333333333331 347.4999999999999 652.4999999999999 291.6666666666665 583.3333333333331 291.6666666666665" />
    <glyph glyph-name="ic-baseline-videocam"
      unicode="&#xEA29;"
      horiz-adv-x="1000" d="M708.3333333333333 562.5V708.3333333333334C708.3333333333333 731.25 689.5833333333333 750 666.6666666666666 750H166.6666666666667C143.75 750 125 731.25 125 708.3333333333334V291.6666666666668C125 268.75 143.75 250.0000000000001 166.6666666666667 250.0000000000001H666.6666666666666C689.5833333333334 250.0000000000001 708.3333333333333 268.7500000000001 708.3333333333333 291.6666666666668V437.5L874.9999999999999 270.8333333333334V729.1666666666667z" />
    <glyph glyph-name="ic-outline-broken-image"
      unicode="&#xEA2A;"
      horiz-adv-x="1000" d="M791.6666666666666 875H208.3333333333333C162.5 875 125 837.5 125 791.6666666666667V208.3333333333335C125 162.5000000000001 162.5 125.0000000000001 208.3333333333333 125.0000000000001H791.6666666666665C837.4999999999999 125.0000000000001 874.9999999999999 162.5000000000001 874.9999999999999 208.3333333333335V791.6666666666667C874.9999999999999 837.5 837.4999999999999 875 791.6666666666665 875M791.6666666666665 208.3333333333334H208.3333333333333V399.1666666666667L249.5833333333333 357.9166666666667L416.25 524.5833333333333L582.9166666666666 357.9166666666667L749.5833333333333 524.1666666666667L791.6666666666666 482.0833333333334zM791.6666666666665 600.4166666666667L749.5833333333331 642.5L582.9166666666665 475.4166666666669L416.2499999999999 642.0833333333335L249.5833333333333 475.4166666666669L208.3333333333333 517.0833333333335V791.6666666666667H791.6666666666665z" />
    <glyph glyph-name="ic-outline-download-for-offline"
      unicode="&#xEA2B;"
      horiz-adv-x="1000" d="M500 916.6666666666666C270.4166666666667 916.6666666666666 83.3333333333333 729.5833333333334 83.3333333333333 500S270.4166666666667 83.3333333333334 499.9999999999999 83.3333333333334S916.6666666666666 270.4166666666668 916.6666666666666 500S729.5833333333334 916.6666666666666 500 916.6666666666666M500 166.6666666666666C316.2500000000001 166.6666666666666 166.6666666666667 316.2499999999999 166.6666666666667 500S316.2500000000001 833.3333333333333 500 833.3333333333333S833.3333333333333 683.75 833.3333333333333 500S683.75 166.6666666666668 499.9999999999999 166.6666666666668M607.9166666666666 642.0833333333334L666.6666666666666 583.3333333333334L500 416.6666666666668L333.3333333333334 583.3333333333334L392.0833333333333 642.0833333333333L458.3333333333333 576.25V750H541.6666666666666V576.25zM708.3333333333333 291.6666666666668H291.6666666666667V375.0000000000001H708.3333333333333z" />
    <glyph glyph-name="ic-outline-insert-photo"
      unicode="&#xEA2C;"
      horiz-adv-x="1000" d="M791.6666666666666 791.6666666666667V208.3333333333335H208.3333333333333V791.6666666666667zM791.6666666666666 875H208.3333333333333C162.5 875 125 837.5 125 791.6666666666667V208.3333333333335C125 162.5000000000001 162.5 125.0000000000001 208.3333333333333 125.0000000000001H791.6666666666665C837.4999999999999 125.0000000000001 874.9999999999999 162.5000000000001 874.9999999999999 208.3333333333335V791.6666666666667C874.9999999999999 837.5 837.4999999999999 875 791.6666666666665 875M589.1666666666665 505.8333333333334L464.1666666666665 344.5833333333334L375 452.5L250 291.6666666666668H750z" />
    <glyph glyph-name="ic-round-photo-camera"
      unicode="&#xEA2D;"
      horiz-adv-x="1000" d="M375 500A125 125 0 0 1 625 500A125 125 0 0 1 375 500M833.3333333333333 833.3333333333334H701.2499999999999L649.5833333333333 889.5833333333334A83.3333333333333 83.3333333333333 0 0 1 588.3333333333333 916.6666666666666H411.6666666666667C388.3333333333334 916.6666666666666 365.8333333333334 906.6666666666666 350.0000000000001 889.5833333333334L298.75 833.3333333333334H166.6666666666667C120.8333333333333 833.3333333333334 83.3333333333333 795.8333333333334 83.3333333333333 750V250C83.3333333333333 204.1666666666666 120.8333333333333 166.6666666666666 166.6666666666667 166.6666666666666H833.3333333333333C879.1666666666666 166.6666666666666 916.6666666666666 204.1666666666666 916.6666666666666 250V750C916.6666666666666 795.8333333333334 879.1666666666666 833.3333333333333 833.3333333333333 833.3333333333333M499.9999999999999 291.6666666666668C385 291.6666666666668 291.6666666666667 385.0000000000001 291.6666666666667 500.0000000000001S385 708.3333333333334 499.9999999999999 708.3333333333334S708.3333333333333 615 708.3333333333333 500.0000000000001S614.9999999999999 291.6666666666668 499.9999999999999 291.6666666666668" />
    <glyph glyph-name="ic-sharp-laptop-windows"
      unicode="&#xEA2E;"
      horiz-adv-x="1000" d="M833.3333333333333 250V291.6666666666667H916.2499999999998L916.6666666666666 875H83.3333333333333V291.6666666666668H166.6666666666667V250.0000000000001H0V166.6666666666668H1000V250.0000000000001zM166.6666666666667 791.6666666666667H833.3333333333333V375H166.6666666666667z" />
    <glyph glyph-name="icon-park-outline-dome"
      unicode="&#xEA2F;"
      horiz-adv-x="1000" d="M83.3333333333333 104.1666666666667H916.6666666666666M104.1666666666667 500S291.6666666666667 520.8333333333333 500 520.8333333333333S895.8333333333333 500 895.8333333333333 500M125 625S313.6041666666667 708.3333333333333 500 708.3333333333333S875 625 875 625M104.1666666666667 375S291.6666666666667 333.3333333333334 500 333.3333333333334S895.8333333333333 375 895.8333333333333 375M500 875C269.875 875 83.3333333333333 688.4583333333333 83.3333333333333 458.3333333333334C83.3333333333333 295.6458333333334 155.7291666666666 172.7916666666666 291.6666666666667 104.1666666666667H708.3333333333333C844.2708333333333 172.7916666666666 916.6666666666666 295.6458333333334 916.6666666666666 458.3333333333334C916.6666666666666 688.4583333333333 730.1249999999999 875 499.9999999999999 875zM500 875C419.4583333333333 875 354.1666666666667 688.4583333333333 354.1666666666667 458.3333333333334C354.1666666666667 308.8125 375.25 177.6666666666668 416.6666666666667 104.1666666666667H583.3333333333334C624.75 177.6666666666668 645.8333333333334 308.8125 645.8333333333334 458.3333333333334C645.8333333333334 688.4583333333333 580.5416666666667 875 500 875z" />
    <glyph glyph-name="icon-park-solid-chip"
      unicode="&#xEA30;"
      horiz-adv-x="1000" d="M291.6666666666667 875H708.3333333333333A41.6666666666667 41.6666666666667 0 0 0 749.9999999999999 833.3333333333334V166.6666666666668A41.6666666666667 41.6666666666667 0 0 0 708.3333333333333 125.0000000000001H291.6666666666667A41.6666666666667 41.6666666666667 0 0 0 250 166.6666666666668V833.3333333333334A41.6666666666667 41.6666666666667 0 0 0 291.6666666666667 875zM250 750H125M250 583.3333333333334H125M250 416.6666666666668H125M250 250.0000000000001H125M875 750.0000000000001H750M875 583.3333333333335H750M875 416.6666666666669H750M875 250.0000000000003H750" />
    <glyph glyph-name="iconamoon-cloud-download-bold"
      unicode="&#xEA31;"
      horiz-adv-x="1000" d="M83.3333333333333 395.8333333333334A187.5 187.5 0 0 1 270.8333333333333 208.3333333333334H770.8333333333333A145.8333333333334 145.8333333333334 0 0 1 791.6666666666666 498.5416666666667A291.6666666666668 291.6666666666668 0 0 1 218.3333333333334 575.9166666666666A187.5 187.5 0 0 1 83.3333333333333 395.8333333333334zM416.6666666666667 458.3333333333334L499.9999999999999 375M499.9999999999999 375L583.3333333333333 458.3333333333334M499.9999999999999 375V625" />
    <glyph glyph-name="iconoir-gamepad"
      unicode="&#xEA32;"
      horiz-adv-x="1000" d="M729.1666666666666 270.8333333333334C833.3333333333333 125 997.875 232.7083333333334 958.3333333333331 375C898.9583333333333 588.7083333333333 866.6666666666666 707.6666666666667 849.8749999999999 770.5A84.5833333333333 84.5833333333333 0 0 1 768.2499999999999 833.3333333333334H231.75C193.5 833.3333333333334 160.1666666666667 807.2916666666667 150.875 770.2083333333334C115.8333333333333 630.7083333333334 84.7083333333333 508.2500000000001 47.6666666666667 375C8.1666666666667 232.7083333333333 172.6666666666667 125 276.8333333333333 270.8333333333334M750 645.8333333333334L750.4583333333334 645.4166666666667M687.0833333333333 708.3333333333334L687.5416666666666 707.9166666666667M687.0833333333333 583.3333333333334L687.5416666666666 582.9166666666667M625 645.8333333333334L625.4583333333334 645.4166666666667M291.6666666666667 708.3333333333334V583.3333333333334M229.1666666666667 645.8333333333334H354.1666666666667M333.3333333333333 333.3333333333334A83.3333333333333 83.3333333333333 0 1 1 333.3333333333333 500A83.3333333333333 83.3333333333333 0 0 1 333.3333333333333 333.3333333333334M666.6666666666666 333.3333333333334A83.3333333333333 83.3333333333333 0 1 1 666.6666666666666 500A83.3333333333333 83.3333333333333 0 0 1 666.6666666666666 333.3333333333334" />
    <glyph glyph-name="iconoir-keyframe-align-horizontal-solid"
      unicode="&#xEA33;"
      horiz-adv-x="1000" d="M456.7916666666666 746.9583333333334A56.25 56.25 0 0 0 543.2083333333333 746.9583333333334L719.0416666666666 536.0416666666666A56.25 56.25 0 0 0 719.0416666666666 464L543.2083333333333 253.0416666666667A56.25 56.25 0 0 0 456.7916666666666 253.0416666666667L280.9583333333333 464A56.25 56.25 0 0 0 281 536.0416666666666zM52.0833333333333 500A31.25 31.25 0 0 0 83.3333333333333 531.25H166.6666666666667A31.25 31.25 0 0 0 166.6666666666667 468.75H83.3333333333333A31.25 31.25 0 0 0 52.0833333333333 500M802.0833333333334 500A31.25 31.25 0 0 0 833.3333333333334 531.25H916.6666666666669A31.25 31.25 0 0 0 916.6666666666669 468.75H833.3333333333334A31.25 31.25 0 0 0 802.0833333333334 500" />
    <glyph glyph-name="iconoir-keyframe-position-solid"
      unicode="&#xEA34;"
      horiz-adv-x="1000" d="M500 322.9166666666668A31.25 31.25 0 0 0 531.25 291.6666666666668V197.9166666666668H875A31.25 31.25 0 0 0 875 135.4166666666668H125A31.25 31.25 0 0 0 125 197.9166666666668H468.75V291.6666666666668A31.25 31.25 0 0 0 500 322.9166666666668M456.7916666666666 871.9583333333334A56.25 56.25 0 0 0 543.2083333333333 871.9583333333334L719.0416666666666 661.0416666666666A56.25 56.25 0 0 0 719.0416666666666 589L543.2083333333333 378.0416666666667A56.25 56.25 0 0 0 456.7916666666666 378.0416666666667L280.9583333333333 588.9999999999999A56.25 56.25 0 0 0 281 661.0416666666665z" />
    <glyph glyph-name="la-creative-commons-by"
      unicode="&#xEA35;"
      horiz-adv-x="1000" d="M500 906.25C276.71875 906.25 93.75 723.28125 93.75 500S276.71875 93.75 500 93.75S906.25 276.71875 906.25 500S723.28125 906.25 500 906.25M500 843.75C689.21875 843.75 843.75 689.21875 843.75 500S689.21875 156.25 500 156.25S156.25 310.78125 156.25 500S310.78125 843.75 500 843.75M500 750C465.625 750 437.5 721.875 437.5 687.5S465.625 625 500 625S562.5 653.125 562.5 687.5S534.375 750 500 750M500 593.75C446.875 593.75 406.25 553.125 406.25 500V406.25L437.5 375V250H562.5V375L593.75 406.25V500C593.75 553.125 553.125 593.75 500 593.75" />
    <glyph glyph-name="la-creative-commons-nc"
      unicode="&#xEA36;"
      horiz-adv-x="1000" d="M500 906.25C276 906.25 93.75 724 93.75 500S276 93.75 500 93.75S906.25 276 906.25 500S724 906.25 500 906.25M500 843.75C689.53125 843.75 843.75 689.53125 843.75 500C843.75 461.3125 836.96875 424.21875 825.125 389.46875L563 506.1562500000001A93.75 93.75 0 0 1 552.1874999999999 515.0625A93.75 93.75 0 0 1 518.7499999999999 529.3125C515.5 529.96875 512.0625 530 508.7499999999999 530.34375L473.9999999999999 545.78125C473.0624999999999 547.25 471.8124999999999 548.46875 471.1249999999999 550.125A31.25 31.25 0 0 0 468.75 562.5Q468.78125 569.21875 471.125 574.875A30 30 0 0 0 487.6250000000001 591.375Q493.28125 593.71875 500 593.75C517.8125 593.75 531.25 580.3125 531.25 562.5H593.75A93.75 93.75 0 0 1 589.125 591.375A95.3125 95.3125 0 0 1 531.25 650.3125V687.5H468.75V650.3125A96.25 96.25 0 0 1 416.4375 604.5625Q413.15625 598.21875 410.875 591.375A93.75 93.75 0 0 1 407.34375 575.5L200.25 667.6875C259.1875 772.53125 371.375 843.75 500 843.75M174.875 610.53125L437 493.84375C444.875 486.59375 453.8125 480.4375000000001 463.75 476.1875C472.34375 472.53125 481.65625 470.59375 491.25 469.65625L526 454.21875C526.9375000000001 452.75 528.1875 451.53125 528.875 449.875Q531.21875 444.21875 531.25 437.5A30.625 30.625 0 0 0 512.375 408.625Q506.71875 406.28125 500 406.25Q493.28125 406.28125 487.625 408.625A31.25 31.25 0 0 0 477.7187499999999 415.21875A31.25 31.25 0 0 0 468.75 437.5H406.25A91.875 91.875 0 0 1 433.03125 372.625A96.875 96.875 0 0 1 468.75 349.65625V312.5H531.25V349.6875A94.375 94.375 0 0 1 592.5 422.6562500000001C592.6250000000001 423.28125 592.5625 423.90625 592.65625 424.5000000000001L799.75 332.3125000000001C740.8125 227.46875 628.625 156.25 500 156.25C310.46875 156.25 156.25 310.46875 156.25 500C156.25 538.6875 163.03125 575.78125 174.875 610.53125" />
    <glyph glyph-name="la-creative-commons-nd"
      unicode="&#xEA37;"
      horiz-adv-x="1000" d="M500 906.25C276 906.25 93.75 724 93.75 500S276 93.75 500 93.75S906.25 276 906.25 500S724 906.25 500 906.25M500 843.75C689.53125 843.75 843.75 689.53125 843.75 500S689.53125 156.25 500 156.25S156.25 310.46875 156.25 500S310.46875 843.75 500 843.75M343.75 593.75V531.25H656.25V593.75zM343.75 468.75V406.25H656.25V468.75z" />
    <glyph glyph-name="la-creative-commons-sa"
      unicode="&#xEA38;"
      horiz-adv-x="1000" d="M500 906.25C276 906.25 93.75 724 93.75 500S276 93.75 500 93.75S906.25 276 906.25 500S724 906.25 500 906.25M500 843.75C689.53125 843.75 843.75 689.53125 843.75 500S689.53125 156.25 500 156.25S156.25 310.46875 156.25 500S310.46875 843.75 500 843.75M500 687.5C431.0625 687.5 375 631.4375 375 562.5H312.5L406.25 468.75L500 562.5H437.5C437.5 596.96875 465.53125 625 500 625S562.5 596.96875 562.5 562.5V437.5C562.5 403.03125 534.46875 375 500 375A62.5 62.5 0 0 0 446.15625 406.25H379.46875C393.4375 352.46875 441.90625 312.5 500 312.5C568.9375 312.5 625 368.5625 625 437.5V562.5C625 631.4375 568.9375 687.5 500 687.5" />
    <glyph glyph-name="la-creative-commons"
      unicode="&#xEA39;"
      horiz-adv-x="1000" d="M500 875C293.21875 875 125 706.78125 125 500S293.21875 125 500 125S875 293.21875 875 500S706.78125 875 500 875M500 812.5C672.96875 812.5 812.5 672.96875 812.5 500S672.96875 187.5 500 187.5S187.5 327.03125 187.5 500S327.03125 812.5 500 812.5M375 625C323.59375 625 281.25 582.65625 281.25 531.25V468.75C281.25 417.34375 323.59375 375 375 375S468.75 417.34375 468.75 468.75H406.25C406.25 451.0625 392.6875 437.5 375 437.5S343.75 451.0625 343.75 468.75V531.25C343.75 548.9375 357.3125 562.5 375 562.5S406.25 548.9375 406.25 531.25H468.75C468.75 582.65625 426.40625 625 375 625M625 625C573.59375 625 531.25 582.65625 531.25 531.25V468.75C531.25 417.34375 573.59375 375 625 375S718.75 417.34375 718.75 468.75H656.25C656.25 451.0625 642.6875 437.5 625 437.5S593.75 451.0625 593.75 468.75V531.25C593.75 548.9375 607.3125 562.5 625 562.5S656.25 548.9375 656.25 531.25H718.75C718.75 582.65625 676.40625 625 625 625" />
    <glyph glyph-name="la-cubes"
      unicode="&#xEA3A;"
      horiz-adv-x="1000" d="M500 875L488.28125 870.125L300.78125 794.90625L281.25 787.09375V577.15625L112.3125 503.9062500000001L93.75 495.1250000000001V243.15625L109.375 233.4062499999999L296.875 128.9062499999999L311.53125 121.0937499999999L326.1875 127.9374999999999L500 214.84375L673.84375 127.9375L688.46875 121.09375L703.125 128.90625L890.625 233.40625L906.25 243.1562500000001V495.1250000000001L887.6875 503.9062500000001L718.75 577.15625V787.125L699.21875 794.9375L511.71875 870.125zM500 806.625L602.53125 766.625L500 726.5625L397.46875 766.59375zM343.75 720.6875L468.75 672.875V520.5L343.75 576.15625zM656.25 720.6875V576.1875L531.25 520.5V672.84375zM312.5 521.5L425.78125 471.6874999999999L312.5 416L199.21875 472.65625zM687.5 521.5L800.78125 472.65625L687.5 416L574.21875 471.6875L609.375 487.3125zM156.25 424.78125L281.25 362.28125V208.9375L156.25 279.25zM843.75 424.78125V279.25L718.75 208.9375V362.28125zM468.75 422.8125V269.5000000000001L343.75 207.0000000000001V362.2812500000001zM531.25 422.8125L656.25 362.28125V207L531.25 269.5z" />
    <glyph glyph-name="lsicon-filter-filled"
      unicode="&#xEA3B;"
      horiz-adv-x="1000" d="M125 843.75A31.25 31.25 0 0 0 156.25 875H781.25A31.25 31.25 0 0 0 812.5 843.75V718.75A31.25 31.25 0 0 0 805.5625 699.125L585.25 426.4375V156.25A31.25 31.25 0 0 0 543.25 126.875L372.75 189.375A31.25 31.25 0 0 0 352.25 218.75V426.4375L131.9375 699.125A31.25 31.25 0 0 0 125 718.75zM875 406.25V343.75H625V406.25zM812.5 218.75H625V281.25H812.5z" />
    <glyph glyph-name="lsicon-list-filled"
      unicode="&#xEA3C;"
      horiz-adv-x="1000" d="M156.25 875A31.25 31.25 0 0 1 125 843.75V156.25A31.25 31.25 0 0 1 156.25 125H843.75A31.25 31.25 0 0 1 875 156.25V843.75A31.25 31.25 0 0 1 843.75 875zM250 625H625V687.5H250zM687.5 625H750V687.5H687.5zM625 468.75H250V531.25H625zM687.5 468.75H750V531.25H687.5zM625 312.5H250V375H625zM687.5 312.5H750V375H687.5z" />
    <glyph glyph-name="lsicon-path-filled"
      unicode="&#xEA3D;"
      horiz-adv-x="1000" d="M509.0625 828.125A125 125 0 1 0 500.9374999999999 765.625H312.5A93.75 93.75 0 1 1 312.5 578.125H750A156.25 156.25 0 0 0 750 265.625H405.3125A125 125 0 1 0 397.1875 328.125H750A93.75 93.75 0 0 1 750 515.625H312.5A156.25 156.25 0 0 0 312.5 828.125z" />
    <glyph glyph-name="lsicon-picking-path-filled"
      unicode="&#xEA3E;"
      horiz-adv-x="1000" d="M125 750A125 125 0 1 0 281.25 628.9375V281.25A93.75 93.75 0 0 1 468.75 281.25V718.75A156.25 156.25 0 0 0 781.25 718.75V531.25H718.75V718.75A93.75 93.75 0 0 1 531.25 718.75V281.25A156.25 156.25 0 0 0 218.75 281.25V628.9375A125 125 0 0 0 125 750M625 343.75A125 125 0 1 0 875 343.75A229.3750000000001 229.3750000000001 0 0 0 777.1875 155.875L750 136.875L722.8125 155.875A229.3750000000001 229.3750000000001 0 0 0 625 343.75" />
    <glyph glyph-name="majesticons-article"
      unicode="&#xEA3F;"
      horiz-adv-x="1000" d="M83.3333333333333 750A125 125 0 0 0 208.3333333333333 875H791.6666666666665A125 125 0 0 0 916.6666666666666 750V250A125 125 0 0 0 791.6666666666665 125H208.3333333333333A125 125 0 0 0 83.3333333333333 250zM291.6666666666667 708.3333333333333A41.6666666666667 41.6666666666667 0 0 1 250 666.6666666666666V500A41.6666666666667 41.6666666666667 0 0 1 291.6666666666667 458.3333333333334H458.3333333333333A41.6666666666667 41.6666666666667 0 0 1 499.9999999999999 500.0000000000001V666.6666666666667A41.6666666666667 41.6666666666667 0 0 1 458.3333333333333 708.3333333333334zM333.3333333333333 541.6666666666666V625H416.6666666666667V541.6666666666667zM625 708.3333333333333A41.6666666666667 41.6666666666667 0 1 1 625 625H708.3333333333334A41.6666666666667 41.6666666666667 0 1 1 708.3333333333334 708.3333333333333zM625 541.6666666666666A41.6666666666667 41.6666666666667 0 1 1 625 458.3333333333333H708.3333333333334A41.6666666666667 41.6666666666667 0 1 1 708.3333333333334 541.6666666666665zM291.6666666666667 375A41.6666666666667 41.6666666666667 0 1 1 291.6666666666667 291.6666666666667H708.3333333333333A41.6666666666667 41.6666666666667 0 1 1 708.3333333333333 375z" />
    </font>
</defs>
</svg>
