<?xml version="1.0" encoding="UTF-8" standalone="no"?>
<!-- Created with Inkscape (http://www.inkscape.org/) -->

<svg
   width="180"
   height="180"
   viewBox="0 0 47.624999 47.625"
   version="1.1"
   id="svg1688"
   inkscape:version="1.4 (e7c3feb100, 2024-10-09)"
   sodipodi:docname="gaia-white.svg"
   inkscape:export-filename="gs_icon_l.png"
   inkscape:export-xdpi="266.66666"
   inkscape:export-ydpi="266.66666"
   xmlns:inkscape="http://www.inkscape.org/namespaces/inkscape"
   xmlns:sodipodi="http://sodipodi.sourceforge.net/DTD/sodipodi-0.dtd"
   xmlns:xlink="http://www.w3.org/1999/xlink"
   xmlns="http://www.w3.org/2000/svg"
   xmlns:svg="http://www.w3.org/2000/svg"
   xmlns:rdf="http://www.w3.org/1999/02/22-rdf-syntax-ns#"
   xmlns:cc="http://creativecommons.org/ns#"
   xmlns:dc="http://purl.org/dc/elements/1.1/">
  <defs
     id="defs1682">
    <linearGradient
       id="swatch12"
       inkscape:swatch="solid">
      <stop
         style="stop-color:#ffffff;stop-opacity:1;"
         offset="0"
         id="stop12" />
    </linearGradient>
    <linearGradient
       id="linearGradient4"
       inkscape:collect="always">
      <stop
         style="stop-color:#11131e;stop-opacity:0.64488941;"
         offset="0.21743403"
         id="stop4" />
      <stop
         style="stop-color:#171a22;stop-opacity:0;"
         offset="0.35786536"
         id="stop5" />
    </linearGradient>
    <radialGradient
       inkscape:collect="always"
       xlink:href="#linearGradient4"
       id="radialGradient1"
       cx="27.416975"
       cy="279.08884"
       fx="27.416975"
       fy="279.08884"
       r="12.5687"
       gradientTransform="matrix(-2.8090061,-2.822951,2.1855498,-2.1747538,-505.09251,964.04804)"
       gradientUnits="userSpaceOnUse" />
  </defs>
  <sodipodi:namedview
     id="base"
     pagecolor="#000000"
     bordercolor="#666666"
     borderopacity="1.0"
     inkscape:pageopacity="0.0"
     inkscape:pageshadow="2"
     inkscape:zoom="2.0000001"
     inkscape:cx="218.49999"
     inkscape:cy="17.5"
     inkscape:document-units="px"
     inkscape:current-layer="layer1"
     showgrid="false"
     inkscape:window-width="1904"
     inkscape:window-height="1035"
     inkscape:window-x="0"
     inkscape:window-y="0"
     inkscape:window-maximized="1"
     units="px"
     inkscape:showpageshadow="0"
     inkscape:pagecheckerboard="0"
     inkscape:deskcolor="#d1d1d1" />
  <metadata
     id="metadata1685">
    <rdf:RDF>
      <cc:Work
         rdf:about="">
        <dc:format>image/svg+xml</dc:format>
        <dc:type
           rdf:resource="http://purl.org/dc/dcmitype/StillImage" />
      </cc:Work>
    </rdf:RDF>
  </metadata>
  <g
     inkscape:label="Layer 1"
     inkscape:groupmode="layer"
     id="layer1"
     transform="translate(0,-259.95833)">
    <ellipse
       transform="rotate(43.661262)"
       ry="10.963622"
       rx="27.686617"
       cy="190.07062"
       cx="213.66321"
       id="path5076-4-5-3"
       style="fill:#ffffff;fill-opacity:1;stroke:none;stroke-width:1.0385;stroke-linecap:round;stroke-linejoin:round;stroke-miterlimit:4;stroke-dasharray:none;stroke-dashoffset:0;stroke-opacity:1;paint-order:normal" />
    <ellipse
       transform="rotate(43.661262)"
       ry="10.963622"
       rx="27.686617"
       cy="189.60516"
       cx="213.64055"
       id="path5076-4-3"
       style="fill:#ffffff;fill-opacity:1;stroke:none;stroke-width:1.0385;stroke-linecap:round;stroke-linejoin:round;stroke-miterlimit:4;stroke-dasharray:none;stroke-dashoffset:0;stroke-opacity:1;paint-order:normal" />
    <ellipse
       transform="rotate(43.661262)"
       ry="10.868287"
       rx="27.445864"
       cy="188.58469"
       cx="213.74374"
       id="path5076-2"
       style="fill:#fbfbff;fill-opacity:1;stroke:none;stroke-width:1.02947;stroke-linecap:round;stroke-linejoin:round;stroke-miterlimit:4;stroke-dasharray:none;stroke-dashoffset:0;stroke-opacity:1;paint-order:normal" />
    <path
       sodipodi:nodetypes="ccccc"
       inkscape:connector-curvature="0"
       id="path5104-9"
       d="m 4.1343301,273.70575 c 0.3671671,1.77198 2.3199408,5.0665 2.3199408,5.0665 l 4.7677621,1.03191 -2.6315347,-4.73223 z"
       style="fill:#000000;fill-opacity:1;stroke:none;stroke-width:0.272381px;stroke-linecap:butt;stroke-linejoin:miter;stroke-opacity:1" />
    <path
       sodipodi:nodetypes="ccccc"
       inkscape:connector-curvature="0"
       id="path5106-8"
       d="m 4.7315424,264.90997 3.3148373,2.87819 2.3768833,-1.34484 -2.6037888,-2.86666 c 0,0 -1.8427564,0.0243 -3.0879318,1.33331 z"
       style="fill:#000000;fill-opacity:1;stroke:none;stroke-width:0.272381px;stroke-linecap:butt;stroke-linejoin:miter;stroke-opacity:1" />
    <path
       sodipodi:nodetypes="ccccc"
       inkscape:connector-curvature="0"
       id="path5110-0"
       d="m 45.580809,297.40413 c 0,0 0.295966,2.88809 -0.230839,3.65435 l -2.372763,-2.12176 0.04365,-3.33373 z"
       style="fill:#000000;fill-opacity:1;stroke:none;stroke-width:0.272381px;stroke-linecap:butt;stroke-linejoin:miter;stroke-opacity:1" />
    <path
       sodipodi:nodetypes="ccccc"
       inkscape:connector-curvature="0"
       id="path5112-5"
       d="m 40.084096,285.47886 c 0,0 2.128242,3.12619 2.527336,4.05209 l -2.698857,-0.98296 -2.292618,-3.37644 z"
       style="fill:#000000;fill-opacity:1;stroke:none;stroke-width:0.272381px;stroke-linecap:butt;stroke-linejoin:miter;stroke-opacity:1" />
    <path
       style="fill:url(#radialGradient1);stroke:none;stroke-width:0.356896px;stroke-linecap:butt;stroke-linejoin:miter;stroke-opacity:1"
       d="m 17.602786,274.15513 -8.851598,8.33961 6.723874,7.95154 9.178593,7.64901 8.626894,-8.72605 z"
       id="path3"
       sodipodi:nodetypes="cccccc" />
    <path
       sodipodi:nodetypes="ccccc"
       inkscape:connector-curvature="0"
       id="path5183-3"
       d="m 27.267827,288.6605 17.995183,12.94481 c 2.004969,-4.33989 -2.730143,-12.24321 -3.209558,-13.13188 L 28.679135,278.19898 Z"
       style="fill:#000000;fill-opacity:0.298595;stroke:none;stroke-width:0.272381px;stroke-linecap:butt;stroke-linejoin:miter;stroke-opacity:1" />
    <path
       sodipodi:nodetypes="ccccc"
       inkscape:connector-curvature="0"
       id="path5102-1"
       d="m 15.783978,290.76606 c 3.432214,3.41625 5.143035,4.59912 5.143035,4.59912 l 1.212465,-3.28806 -3.752531,-3.39098 z"
       style="fill:#000000;fill-opacity:1;stroke:none;stroke-width:0.272381px;stroke-linecap:butt;stroke-linejoin:miter;stroke-opacity:1" />
    <path
       sodipodi:nodetypes="ccccc"
       inkscape:connector-curvature="0"
       id="path5108-9"
       d="m 33.244489,303.00773 c 1.649526,0.84302 4.502375,1.40584 4.971351,1.41639 l -2.208986,-3.96224 -4.29854,-1.77266 z"
       style="fill:#000000;fill-opacity:1;stroke:none;stroke-width:0.272381px;stroke-linecap:butt;stroke-linejoin:miter;stroke-opacity:1" />
    <path
       inkscape:connector-curvature="0"
       id="path5114-2"
       d="m 16.749831,265.52275 c 1.38885,0.43102 4.310309,2.22887 4.310309,2.22887 l 0.808882,2.86378 -3.501326,-2.01024 z"
       style="fill:#000000;fill-opacity:1;stroke:none;stroke-width:0.272381px;stroke-linecap:butt;stroke-linejoin:miter;stroke-opacity:1"
       sodipodi:nodetypes="ccccc" />
    <path
       sodipodi:nodetypes="cccccc"
       inkscape:connector-curvature="0"
       id="path5146-6"
       d="m 36.059512,271.17815 -13.793353,-1.72002 -4.959033,4.89477 c -0.820243,8.16218 8.193459,16.0928 15.929185,15.07802 l 5.577497,-5.24888 z"
       style="fill:#ffffff;fill-opacity:1;stroke:none;stroke-width:0.272381px;stroke-linecap:butt;stroke-linejoin:miter;stroke-opacity:1" />
    <path
       sodipodi:nodetypes="cccccc"
       inkscape:connector-curvature="0"
       id="path5148-6"
       d="m 26.391105,265.59396 -4.001284,4.17988 c -1.074702,7.00886 8.240712,15.28079 15.519671,14.66344 l 7.315923,-7.62235 -15.301168,-14.53095 -3.081618,3.17452"
       style="fill:#ffffff;fill-opacity:1;stroke:none;stroke-width:0.272381px;stroke-linecap:butt;stroke-linejoin:miter;stroke-opacity:1" />
    <ellipse
       transform="rotate(43.661262)"
       ry="3.502043"
       rx="10.785807"
       cy="169.3259"
       cx="213.21327"
       id="path5150-4"
       style="fill:#ffffff;fill-opacity:1;stroke:none;stroke-width:1.02947;stroke-linecap:round;stroke-linejoin:round;stroke-miterlimit:4;stroke-dasharray:none;stroke-dashoffset:0;stroke-opacity:1;paint-order:normal" />
    <path
       sodipodi:nodetypes="cccc"
       inkscape:connector-curvature="0"
       id="path5152-7"
       d="m 39.094807,267.576 -1.693154,6.79396 c 6.164671,5.01634 11.496643,4.36507 5.593024,-3.61835 z"
       style="fill:#000000;fill-opacity:0.29803923;stroke:none;stroke-width:0.268173px;stroke-linecap:butt;stroke-linejoin:miter;stroke-opacity:1" />
    <path
       sodipodi:nodetypes="ccccc"
       inkscape:connector-curvature="0"
       id="path5154-3"
       d="m 39.077757,267.54649 c -0.01081,0.47328 0.337379,0.67496 0.654837,0.64172 l 0.486681,-0.82092 c 0.04014,-0.12569 -0.166237,-0.34952 -0.348475,-0.32588 z"
       style="fill:#28282b;fill-opacity:1;stroke:none;stroke-width:0.272381px;stroke-linecap:butt;stroke-linejoin:miter;stroke-opacity:1" />
    <path
       sodipodi:nodetypes="ccccc"
       inkscape:connector-curvature="0"
       id="path5175-6"
       d="m 39.936986,267.30427 c 0,0 0.108956,0.10054 0.20374,0.0849 l -0.435463,0.72534 c 0,0 -0.207145,0.0198 -0.358499,-0.1096 z"
       style="fill:#c8c0c5;fill-opacity:1;stroke:none;stroke-width:0.242185px;stroke-linecap:butt;stroke-linejoin:miter;stroke-opacity:1" />
    <path
       style="fill:#000000;fill-opacity:0.29803923;stroke:none;stroke-width:0.357588px;stroke-linecap:butt;stroke-linejoin:miter;stroke-opacity:1"
       d="m 31.094925,282.82251 0.48358,0.63991 -4.37826,5.11283 c 3.378911,1.37958 6.039892,0.85078 6.039892,0.85078 l 5.573575,-5.24406 -0.118717,-0.56154 5.896469,-6.14557 c -2.203633,0.65072 -6.157407,-2.30945 -6.157407,-2.30945 -0.952406,0.90714 -7.339132,7.6571 -7.339132,7.6571 z"
       id="path2"
       sodipodi:nodetypes="ccccccccc" />
    <path
       sodipodi:nodetypes="ccccc"
       inkscape:connector-curvature="0"
       id="path5179-4"
       d="m 33.182576,270.95978 c 2.919762,3.14882 4.995165,4.97973 8.636638,6.51175 l -3.047319,3.21031 c -2.376264,-0.65022 -6.074663,-3.04131 -8.739166,-6.37019 z"
       style="fill:#000000;fill-opacity:1;stroke:none;stroke-width:0.314372px;stroke-linecap:butt;stroke-linejoin:miter;stroke-opacity:1" />
    <path
       sodipodi:nodetypes="ccccc"
       inkscape:connector-curvature="0"
       id="path5177-0"
       d="m 30.254308,266.41917 -2.867832,2.98604 c 0,0 -1.217016,-2.37875 -0.886522,-3.69379 l 2.773608,-2.90134 c -0.444741,1.36775 0.980746,3.60909 0.980746,3.60909 z"
       style="fill:#000000;fill-opacity:1;stroke:none;stroke-width:0.272381px;stroke-linecap:butt;stroke-linejoin:miter;stroke-opacity:1" />
    <path
       sodipodi:nodetypes="ccccccc"
       inkscape:connector-curvature="0"
       id="path5181-9"
       d="m 22.51021,272.68825 2.442631,-2.6244 1.277532,0.10609 c 0.290017,1.36933 1.315192,3.11979 2.962617,4.79283 l 0.203675,1.83815 -2.720556,2.87685 c -1.538651,-1.43477 -3.625818,-4.12086 -4.165899,-6.98946 z"
       style="fill:#000000;fill-opacity:0.977593;stroke:none;stroke-width:0.272381px;stroke-linecap:butt;stroke-linejoin:miter;stroke-opacity:1" />
  </g>
</svg>
