<?xml version="1.0" encoding="UTF-8" standalone="no"?>
<!-- Created with Inkscape (http://www.inkscape.org/) -->

<svg
   width="180"
   height="180"
   viewBox="0 0 47.624999 47.625"
   version="1.1"
   id="svg1688"
   inkscape:version="1.4.3 (0d15f75042, 2025-12-25)"
   sodipodi:docname="gaia-connect.svg"
   inkscape:export-filename="gs_icon_l.png"
   inkscape:export-xdpi="266.66666"
   inkscape:export-ydpi="266.66666"
   xml:space="preserve"
   xmlns:inkscape="http://www.inkscape.org/namespaces/inkscape"
   xmlns:sodipodi="http://sodipodi.sourceforge.net/DTD/sodipodi-0.dtd"
   xmlns:xlink="http://www.w3.org/1999/xlink"
   xmlns="http://www.w3.org/2000/svg"
   xmlns:svg="http://www.w3.org/2000/svg"
   xmlns:rdf="http://www.w3.org/1999/02/22-rdf-syntax-ns#"
   xmlns:cc="http://creativecommons.org/ns#"
   xmlns:dc="http://purl.org/dc/elements/1.1/"><defs
     id="defs1682"><linearGradient
       id="swatch12"
       inkscape:swatch="solid"><stop
         style="stop-color:#ffffff;stop-opacity:1;"
         offset="0"
         id="stop12" /></linearGradient><linearGradient
       id="linearGradient4"
       inkscape:collect="always"><stop
         style="stop-color:#11131e;stop-opacity:0.64488941;"
         offset="0.21743403"
         id="stop4" /><stop
         style="stop-color:#171a22;stop-opacity:0;"
         offset="0.35786536"
         id="stop5" /></linearGradient><radialGradient
       inkscape:collect="always"
       xlink:href="#linearGradient4"
       id="radialGradient1"
       cx="27.416975"
       cy="279.08884"
       fx="27.416975"
       fy="279.08884"
       r="12.5687"
       gradientTransform="matrix(-2.8090061,-2.822951,2.1855498,-2.1747538,-505.53114,963.62165)"
       gradientUnits="userSpaceOnUse" /></defs><sodipodi:namedview
     id="base"
     pagecolor="#ffffff"
     bordercolor="#666666"
     borderopacity="1.0"
     inkscape:pageopacity="0.0"
     inkscape:pageshadow="2"
     inkscape:zoom="11.313709"
     inkscape:cx="145.39882"
     inkscape:cy="156.53576"
     inkscape:document-units="px"
     inkscape:current-layer="g15"
     showgrid="false"
     inkscape:window-width="1904"
     inkscape:window-height="1035"
     inkscape:window-x="0"
     inkscape:window-y="0"
     inkscape:window-maximized="1"
     units="px"
     inkscape:showpageshadow="0"
     inkscape:pagecheckerboard="0"
     inkscape:deskcolor="#d1d1d1" /><metadata
     id="metadata1685"><rdf:RDF><cc:Work
         rdf:about=""><dc:format>image/svg+xml</dc:format><dc:type
           rdf:resource="http://purl.org/dc/dcmitype/StillImage" /></cc:Work></rdf:RDF></metadata><g
     inkscape:label="Layer 1"
     inkscape:groupmode="layer"
     id="layer1"
     transform="translate(0,-259.95833)"><g
       id="g1"
       transform="translate(0.43862716,0.42639148)"><ellipse
         transform="rotate(43.661262)"
         ry="10.963622"
         rx="27.686617"
         cy="190.06497"
         cx="213.05151"
         id="path5076-4-5-3"
         style="fill:#b77815;fill-opacity:1;stroke:none;stroke-width:1.0385;stroke-linecap:round;stroke-linejoin:round;stroke-miterlimit:4;stroke-dasharray:none;stroke-dashoffset:0;stroke-opacity:1;paint-order:normal" /><ellipse
         transform="rotate(43.661262)"
         ry="10.963622"
         rx="27.686617"
         cy="189.59952"
         cx="213.02885"
         id="path5076-4-3"
         style="fill:#cc8a21;fill-opacity:1;stroke:none;stroke-width:1.0385;stroke-linecap:round;stroke-linejoin:round;stroke-miterlimit:4;stroke-dasharray:none;stroke-dashoffset:0;stroke-opacity:1;paint-order:normal" /><ellipse
         transform="rotate(43.661262)"
         ry="10.868287"
         rx="27.445864"
         cy="188.57904"
         cx="213.13205"
         id="path5076-2"
         style="fill:#3b3b3c;fill-opacity:1;stroke:none;stroke-width:1.02947;stroke-linecap:round;stroke-linejoin:round;stroke-miterlimit:4;stroke-dasharray:none;stroke-dashoffset:0;stroke-opacity:1;paint-order:normal" /><path
         sodipodi:nodetypes="ccccc"
         inkscape:connector-curvature="0"
         id="path5104-9"
         d="m 3.6957029,273.27936 c 0.3671671,1.77198 2.3199408,5.0665 2.3199408,5.0665 l 4.7677623,1.03191 -2.6315349,-4.73223 z"
         style="fill:#e3a02a;fill-opacity:1;stroke:none;stroke-width:0.272381px;stroke-linecap:butt;stroke-linejoin:miter;stroke-opacity:1" /><path
         sodipodi:nodetypes="ccccc"
         inkscape:connector-curvature="0"
         id="path5106-8"
         d="m 4.2929152,264.48358 3.3148373,2.87819 2.3768838,-1.34484 -2.6037893,-2.86666 c 0,0 -1.8427564,0.0243 -3.0879318,1.33331 z"
         style="fill:#e3a02a;fill-opacity:1;stroke:none;stroke-width:0.272381px;stroke-linecap:butt;stroke-linejoin:miter;stroke-opacity:1" /><path
         sodipodi:nodetypes="ccccc"
         inkscape:connector-curvature="0"
         id="path5110-0"
         d="m 45.142182,296.97774 c 0,0 0.295966,2.88809 -0.230839,3.65435 l -2.372763,-2.12176 0.04365,-3.33373 z"
         style="fill:#e3a02a;fill-opacity:1;stroke:none;stroke-width:0.272381px;stroke-linecap:butt;stroke-linejoin:miter;stroke-opacity:1" /><path
         sodipodi:nodetypes="ccccc"
         inkscape:connector-curvature="0"
         id="path5112-5"
         d="m 39.645469,285.05247 c 0,0 2.128242,3.12619 2.527336,4.05209 l -2.698857,-0.98296 -2.292618,-3.37644 z"
         style="fill:#e3a02a;fill-opacity:1;stroke:none;stroke-width:0.272381px;stroke-linecap:butt;stroke-linejoin:miter;stroke-opacity:1" /><path
         style="fill:url(#radialGradient1);stroke:none;stroke-width:0.356896px;stroke-linecap:butt;stroke-linejoin:miter;stroke-opacity:1"
         d="m 17.164159,273.72874 -8.8515982,8.33961 6.7238742,7.95154 9.178593,7.64901 8.626894,-8.72605 z"
         id="path3"
         sodipodi:nodetypes="cccccc" /><path
         sodipodi:nodetypes="ccccc"
         inkscape:connector-curvature="0"
         id="path5183-3"
         d="m 26.763054,288.1349 17.995183,12.94481 c 2.004969,-4.33989 -2.730143,-12.24321 -3.209558,-13.13188 L 28.174362,277.67338 Z"
         style="fill:#000000;fill-opacity:0.298595;stroke:none;stroke-width:0.272381px;stroke-linecap:butt;stroke-linejoin:miter;stroke-opacity:1" /><path
         sodipodi:nodetypes="ccccc"
         inkscape:connector-curvature="0"
         id="path5102-1"
         d="m 15.345351,290.33967 c 3.432214,3.41625 5.143035,4.59912 5.143035,4.59912 l 1.212465,-3.28806 -3.752531,-3.39098 z"
         style="fill:#e3a02a;fill-opacity:1;stroke:none;stroke-width:0.272381px;stroke-linecap:butt;stroke-linejoin:miter;stroke-opacity:1" /><path
         sodipodi:nodetypes="ccccc"
         inkscape:connector-curvature="0"
         id="path5108-9"
         d="m 32.805862,302.58134 c 1.649526,0.84302 4.502375,1.40584 4.971351,1.41639 l -2.208986,-3.96224 -4.29854,-1.77266 z"
         style="fill:#e3a02a;fill-opacity:1;stroke:none;stroke-width:0.272381px;stroke-linecap:butt;stroke-linejoin:miter;stroke-opacity:1" /><path
         inkscape:connector-curvature="0"
         id="path5114-2"
         d="m 16.311204,265.09636 c 1.38885,0.43102 4.310309,2.22887 4.310309,2.22887 l 0.808882,2.86378 -3.501326,-2.01024 z"
         style="fill:#e3a02a;fill-opacity:1;stroke:none;stroke-width:0.272381px;stroke-linecap:butt;stroke-linejoin:miter;stroke-opacity:1"
         sodipodi:nodetypes="ccccc" /><path
         sodipodi:nodetypes="cccccc"
         inkscape:connector-curvature="0"
         id="path5146-6"
         d="m 35.620885,270.75176 -13.793353,-1.72002 -4.959033,4.89477 c -0.820243,8.16218 8.193459,16.0928 15.929185,15.07802 l 5.577497,-5.24888 z"
         style="fill:#50505b;fill-opacity:1;stroke:none;stroke-width:0.272381px;stroke-linecap:butt;stroke-linejoin:miter;stroke-opacity:1" /><path
         sodipodi:nodetypes="cccccc"
         inkscape:connector-curvature="0"
         id="path5148-6"
         d="m 25.952478,265.16757 -4.001284,4.17988 c -1.074702,7.00886 8.240712,15.28079 15.519671,14.66344 l 7.315923,-7.62235 -15.301168,-14.53095 -3.081618,3.17452"
         style="fill:#73767a;fill-opacity:1;stroke:none;stroke-width:0.272381px;stroke-linecap:butt;stroke-linejoin:miter;stroke-opacity:1" /><ellipse
         transform="rotate(43.661262)"
         ry="3.502043"
         rx="10.785807"
         cy="169.32025"
         cx="212.60158"
         id="path5150-4"
         style="fill:#c5c5c5;fill-opacity:1;stroke:none;stroke-width:1.02947;stroke-linecap:round;stroke-linejoin:round;stroke-miterlimit:4;stroke-dasharray:none;stroke-dashoffset:0;stroke-opacity:1;paint-order:normal" /><path
         sodipodi:nodetypes="cccc"
         inkscape:connector-curvature="0"
         id="path5152-7"
         d="m 38.65618,267.14961 -1.693154,6.79396 c 6.164671,5.01634 11.496643,4.36507 5.593024,-3.61835 z"
         style="fill:#989c99;fill-opacity:1;stroke:none;stroke-width:0.268173px;stroke-linecap:butt;stroke-linejoin:miter;stroke-opacity:1" /><path
         sodipodi:nodetypes="ccccc"
         inkscape:connector-curvature="0"
         id="path5154-3"
         d="m 38.63913,267.1201 c -0.01081,0.47328 0.337379,0.67496 0.654837,0.64172 l 0.486681,-0.82092 c 0.04014,-0.12569 -0.166237,-0.34952 -0.348475,-0.32588 z"
         style="fill:#28282b;fill-opacity:1;stroke:none;stroke-width:0.272381px;stroke-linecap:butt;stroke-linejoin:miter;stroke-opacity:1" /><path
         sodipodi:nodetypes="ccccc"
         inkscape:connector-curvature="0"
         id="path5175-6"
         d="m 39.498359,266.87788 c 0,0 0.108956,0.10054 0.20374,0.0849 l -0.435463,0.72534 c 0,0 -0.207145,0.0198 -0.358499,-0.1096 z"
         style="fill:#c8c0c5;fill-opacity:1;stroke:none;stroke-width:0.242185px;stroke-linecap:butt;stroke-linejoin:miter;stroke-opacity:1" /><path
         style="fill:#1d1d1d;fill-opacity:0.642942;stroke:none;stroke-width:0.357588px;stroke-linecap:butt;stroke-linejoin:miter;stroke-opacity:1"
         d="m 30.656298,282.39612 0.48358,0.63991 -4.37826,5.11283 c 3.378911,1.37958 6.039892,0.85078 6.039892,0.85078 l 5.573575,-5.24406 -0.118717,-0.56154 5.896469,-6.14557 c -2.203633,0.65072 -6.157407,-2.30945 -6.157407,-2.30945 -0.952406,0.90714 -7.339132,7.6571 -7.339132,7.6571 z"
         id="path2"
         sodipodi:nodetypes="ccccccccc" /><path
         sodipodi:nodetypes="ccccc"
         inkscape:connector-curvature="0"
         id="path5179-4"
         d="m 32.743949,270.53339 c 2.919762,3.14882 4.995165,4.97973 8.636638,6.51175 l -3.047319,3.21031 c -2.376264,-0.65022 -6.074663,-3.04131 -8.739166,-6.37019 z"
         style="fill:#000000;fill-opacity:1;stroke:none;stroke-width:0.314372px;stroke-linecap:butt;stroke-linejoin:miter;stroke-opacity:1" /><path
         sodipodi:nodetypes="ccccc"
         inkscape:connector-curvature="0"
         id="path5177-0"
         d="m 29.815681,265.99278 -2.867832,2.98604 c 0,0 -1.217016,-2.37875 -0.886522,-3.69379 l 2.773608,-2.90134 c -0.444741,1.36775 0.980746,3.60909 0.980746,3.60909 z"
         style="fill:#000000;fill-opacity:1;stroke:none;stroke-width:0.272381px;stroke-linecap:butt;stroke-linejoin:miter;stroke-opacity:1" /><path
         sodipodi:nodetypes="ccccccc"
         inkscape:connector-curvature="0"
         id="path5181-9"
         d="m 22.071583,272.26186 2.442631,-2.6244 1.277532,0.10609 c 0.290017,1.36933 1.315192,3.11979 2.962617,4.79283 l 0.203675,1.83815 -2.720556,2.87685 c -1.538651,-1.43477 -3.625818,-4.12086 -4.165899,-6.98946 z"
         style="fill:#2a2a2a;fill-opacity:0.977593;stroke:none;stroke-width:0.272381px;stroke-linecap:butt;stroke-linejoin:miter;stroke-opacity:1" /></g><g
       transform="matrix(0.00349309,0,0,-0.00393234,1.7044956,308.69618)"
       fill="#000000"
       stroke="none"
       id="g15"><path
         id="path1"
         d="M 2377.3209 5614.3319 C 1800.2206 5399.1071 1345.4131 5153.7394 982.99557 4863.9583 C 864.99557 4769.9583 648.03791 4555.062 560.03791 4446.062 C 92.037911 3867.062 -104.03156 3080.9993 58.968444 2441.9993 C 151.96844 2081.9993 364.02041 1723.9617 651.02041 1444.9617 C 839.02041 1262.9617 1013.999 1142.9878 1294.999 1004.9878 C 1839.999 736.98778 2621.9934 510.01556 3394.9934 396.01556 C 4003.9934 306.01556 4514.0589 273.99956 5235.0589 282.99956 C 6241.0589 294.99956 7199.9732 395.95746 8334.9732 609.95746 C 8772.9732 691.95746 9417.9535 835.00173 9789.9535 931.00173 C 10442.953 1100.0017 10879.968 1223.9559 10879.968 1239.9559 L 10879.968 1240.0873 L 10879.968 1240.2187 C 10878.776 1245.0116 10840.281 1276.5977 10794.016 1311.0509 C 10644.016 1422.0509 10545.061 1546.0612 10500.061 1680.0612 C 10480.061 1738.0612 10478.048 1758.9606 10483.048 1864.9606 C 10487.048 1952.9606 10494.931 2006.0015 10512.931 2063.0015 C 10533.931 2127.0015 10534.991 2140.01 10522.991 2140.01 C 10514.991 2140.01 10224.054 2056.0593 9876.054 1954.0593 C 8235.054 1471.0593 7344.959 1247.9738 6379.959 1078.9738 C 5554.959 933.97384 4889.9369 870.02566 4220.9369 870.02566 C 3150.9369 871.02566 2345.0244 1044.0218 1670.0244 1418.0218 C 1432.0244 1550.0218 1218.9448 1711.0356 1018.9448 1910.0356 C 813.94476 2114.0356 676.94418 2300.0141 573.94418 2514.0141 C 269.94418 3149.0141 391.92668 3801.0508 926.92668 4392.0508 C 1116.9267 4602.0508 1345.9329 4794.9392 1629.9329 4983.9392 C 1904.1524 5166.5486 2196.0109 5327.9187 2513.7206 5471.8792 L 2377.3209 5614.3319 z "
         style="fill:#c7c5ba;fill-opacity:1" /><path
         d="m 12334,2845 c -13,-20 -15,-31 -6,-50 17,-37 43,-46 80,-28 26,13 32,21 32,47 0,41 -16,56 -57,56 -24,0 -37,-7 -49,-25 z"
         id="path2-3"
         style="fill:#a7a69f;fill-opacity:1" /><path
         d="m 12170,2805 c -166,-70 -1313,-599 -1490,-688 -87,-43 -98,-56 -86,-102 11,-45 38,-40 209,36 204,90 1323,607 1405,648 76,38 92,63 64,100 -25,34 -36,34 -102,6 z"
         id="path3-6"
         style="fill:#f5f3e5;fill-opacity:1" /><path
         d="m 12513,2725 c -49,-21 -56,-82 -12,-106 26,-13 85,5 99,31 30,57 -23,103 -87,75 z"
         id="path4"
         style="fill:#a7a69f;fill-opacity:1" /><path
         d="m 12306,2629 c -14,-11 -26,-29 -26,-40 0,-27 35,-59 65,-59 30,0 65,32 65,60 0,25 -34,60 -59,60 -10,0 -30,-9 -45,-21 z"
         id="path5"
         style="fill:#a7a69f;fill-opacity:1" /><path
         d="m 12686,2579 c -47,-37 -25,-99 35,-99 31,0 79,38 79,62 0,8 -7,24 -16,36 -19,28 -63,29 -98,1 z"
         id="path6"
         style="fill:#a7a69f;fill-opacity:1" /><path
         d="m 11925,2469 c -901,-383 -1343,-573 -1362,-585 -16,-10 -23,-24 -23,-47 0,-38 15,-57 45,-57 20,0 569,229 1290,538 373,160 399,176 375,223 -15,28 -29,39 -50,38 -8,0 -132,-49 -275,-110 z"
         id="path7"
         style="fill:#f5f3e5;fill-opacity:1" /><path
         d="m 12515,2487 c -22,-19 -27,-29 -21,-50 8,-34 39,-50 77,-42 38,9 55,46 37,83 -18,36 -57,40 -93,9 z"
         id="path8"
         style="fill:#a7a69f;fill-opacity:1" /><path
         d="m 12381,2417 c -53,-27 -42,-99 16,-105 62,-6 99,69 51,102 -27,19 -36,19 -67,3 z"
         id="path9"
         style="fill:#a7a69f;fill-opacity:1" /><path
         d="m 12695,2365 c -14,-13 -25,-31 -25,-40 0,-23 37,-55 65,-55 29,0 65,32 65,58 0,29 -29,62 -56,62 -14,0 -36,-11 -49,-25 z"
         id="path10"
         style="fill:#a7a69f;fill-opacity:1" /><path
         d="m 12120,2314 c -264,-95 -1151,-427 -1370,-513 -170,-68 -196,-85 -186,-125 10,-39 38,-49 89,-32 278,95 1505,559 1593,602 34,16 39,24 39,53 0,23 -6,38 -20,46 -17,11 -38,7 -145,-31 z"
         id="path11"
         style="fill:#f5f3e5;fill-opacity:1" /><path
         d="m 12537,2232 c -34,-37 -12,-102 34,-102 22,0 69,42 69,62 0,50 -70,76 -103,40 z"
         id="path12"
         style="fill:#a7a69f;fill-opacity:1" /><path
         d="m 12365,2178 c -16,-6 -170,-59 -340,-119 -704,-244 -1306,-462 -1342,-485 -28,-18 -30,-55 -5,-77 32,-29 -34,-49 807,247 459,161 827,292 905,324 68,27 75,32 78,60 6,54 -35,74 -103,50 z"
         id="path13"
         style="fill:#f5f3e5;fill-opacity:1" /><path
         d="m 12686,2147 c -43,-31 -2,-116 48,-101 32,10 56,35 56,59 0,46 -64,71 -104,42 z"
         id="path14"
         style="fill:#a7a69f;fill-opacity:1" /><path
         d="m 12480,1970 c -30,-10 -188,-60 -350,-110 -362,-113 -937,-295 -1123,-357 -117,-38 -140,-49 -148,-70 -10,-28 1,-57 30,-73 23,-12 290,70 1292,394 445,144 423,135 427,174 6,64 -28,75 -128,42 z"
         id="path15"
         style="fill:#f5f3e5;fill-opacity:1" /></g></g></svg>
